<?xml version="1.0" encoding="utf-8"?>
<!-- Generator: Adobe Illustrator 21.0.0, SVG Export Plug-In . SVG Version: 6.00 Build 0)  -->
<svg version="1.1" id="Capa_1" xmlns="http://www.w3.org/2000/svg" xmlns:xlink="http://www.w3.org/1999/xlink" x="0px" y="0px"
	 viewBox="0 0 74.6 85.5" style="enable-background:new 0 0 74.6 85.5;" xml:space="preserve">
<style type="text/css">
	.st0{fill:#FFFFFF;}
</style>
<g>
	<path class="st0" d="M36.4,41.4c0.9,0,1.6-0.7,1.6-1.6s-0.7-1.6-1.6-1.6C20.9,38.3,8.2,51,7.9,66.7c0,1,0.3,2,0.3,2.1l0.1,0.1
		c0.3,0.3,0.7,0.5,1.2,0.5c0.4,0,0.8-0.2,1.1-0.4l5.1-4.7c0.6-0.6,0.7-1.6,0.1-2.2c-0.3-0.3-0.7-0.5-1.1-0.5s-0.8,0.1-1.1,0.4
		l-2.3,2.1C12.5,51.3,23.4,41.4,36.4,41.4z"/>
	<path class="st0" d="M35.4,17.4C35.4,17.4,35.4,17.4,35.4,17.4c0.4,0,0.8-0.2,1.1-0.5c0.3-0.3,0.5-0.7,0.4-1.1l-0.1-3
		c4,4.2,6.4,9.6,6.9,15.5c0.5,6.7-1.6,13.2-6,18.3c-0.5,0.7-0.6,1.6,0,2.2c0.3,0.3,0.7,0.5,1.2,0.5c0.5,0,0.9-0.2,1.2-0.5
		c5-5.8,7.3-13.1,6.8-20.7c-0.6-7.3-4.1-14.2-9.8-19.4c-0.4-0.3-0.8-0.6-1.1-0.9c-0.5-0.3-1.1-0.3-1.6,0C33.9,8,33.6,8.5,33.6,9
		l0.2,6.9C33.8,16.8,34.5,17.4,35.4,17.4z"/>
	<path class="st0" d="M67.6,60.2l-6.2-3.1c-0.8-0.4-1.7-0.1-2.1,0.7c-0.2,0.4-0.2,0.8-0.1,1.2c0.1,0.4,0.4,0.7,0.8,0.9l2.9,1.4
		c-12.4,3.3-25.5-3.3-30.1-15.3c-0.3-0.8-1.2-1.2-2.1-0.9c-0.7,0.2-1.2,0.9-1.2,1.6v27.1c0,0.9,0.8,1.7,1.7,1.7s1.7-0.8,1.7-1.7V53
		c5.3,7.7,14.2,12.4,23.5,12.4c3,0,6-0.5,8.9-1.4l0,0c0,0,0.6-0.2,1.3-0.5c0,0,0,0,0,0c0,0,0,0,0,0c0.4-0.2,0.9-0.4,1.2-0.6
		c0,0,0,0,0.1,0c0.1,0,0.1-0.1,0.2-0.1c0,0,0,0,0.1-0.1c0.1-0.1,0.2-0.2,0.3-0.4c0.2-0.4,0.2-0.8,0.1-1.2
		C68.2,60.7,68,60.4,67.6,60.2z"/>
</g>
</svg>
