<?xml version="1.0" encoding="utf-8"?>
<!-- Generator: Adobe Illustrator 23.0.2, SVG Export Plug-In . SVG Version: 6.00 Build 0)  -->
<svg version="1.1" id="Capa_1" xmlns="http://www.w3.org/2000/svg" xmlns:xlink="http://www.w3.org/1999/xlink" x="0px" y="0px"
	 viewBox="0 0 210 68" style="enable-background:new 0 0 210 68;" xml:space="preserve">
<style type="text/css">
	.st0{fill:#FFFFFF;}
</style>
<g>
	<g>
		<path class="st0" d="M29.36,33.94c0.88,0,1.59-0.71,1.59-1.59c0-0.88-0.71-1.59-1.59-1.59c-15.42,0-28.18,12.76-28.44,28.44
			c-0.02,0.96,0.32,2.05,0.33,2.09l0.08,0.14c0.3,0.33,0.73,0.52,1.17,0.52c0.4,0,0.78-0.15,1.07-0.41l5.11-4.66
			c0.65-0.59,0.69-1.6,0.1-2.24c-0.29-0.31-0.68-0.5-1.1-0.52c-0.42-0.02-0.83,0.13-1.14,0.41l-2.32,2.11
			C5.52,43.84,16.39,33.94,29.36,33.94z"/>
		<path class="st0" d="M28.4,9.94c0.01,0,0.02,0,0.02,0c0.42-0.01,0.82-0.18,1.11-0.48c0.29-0.31,0.45-0.71,0.43-1.13l-0.09-3.01
			c3.99,4.2,6.42,9.65,6.86,15.45c0.51,6.7-1.6,13.2-5.96,18.32c-0.55,0.65-0.56,1.57-0.03,2.16c0.3,0.33,0.73,0.53,1.18,0.53
			c0.46,0,0.9-0.2,1.21-0.55c4.95-5.77,7.35-13.12,6.77-20.69c-0.56-7.34-4.06-14.23-9.84-19.41c-0.37-0.33-0.76-0.63-1.15-0.87
			c-0.48-0.3-1.09-0.32-1.59-0.04c-0.47,0.26-0.75,0.74-0.74,1.29l0.21,6.93C26.82,9.27,27.52,9.94,28.4,9.94z"/>
		<path class="st0" d="M60.58,52.69l-6.19-3.09c-0.78-0.39-1.74-0.07-2.13,0.71c-0.19,0.38-0.22,0.81-0.09,1.21
			c0.13,0.4,0.42,0.73,0.8,0.92l2.86,1.43c-12.38,3.32-25.47-3.27-30.11-15.32c-0.32-0.82-1.24-1.22-2.09-0.89
			c-0.7,0.22-1.16,0.86-1.16,1.59v27.08c0,0.92,0.75,1.67,1.67,1.67c0.92,0,1.67-0.75,1.67-1.67V45.46
			c5.26,7.7,14.16,12.44,23.53,12.44c3.04,0,6.03-0.49,8.92-1.45l0,0c0,0,0.61-0.2,1.26-0.45c0.01,0,0.01,0,0.02-0.01
			c0,0,0,0,0.01,0c0.45-0.18,0.91-0.38,1.2-0.56c0.02-0.01,0.04-0.03,0.06-0.04c0.06-0.04,0.12-0.08,0.15-0.12
			c0.02-0.02,0.04-0.05,0.06-0.07c0.11-0.12,0.21-0.24,0.29-0.39c0.19-0.38,0.22-0.81,0.09-1.21C61.24,53.2,60.96,52.87,60.58,52.69
			z"/>
	</g>
	<path class="st0" d="M73.58,47.92c0.43,0,0.8,0.06,1.13,0.19c0.33,0.13,0.69,0.35,1.1,0.66c0.14,0.09,0.25,0.13,0.34,0.13
		c0.09,0,0.16-0.04,0.23-0.12c0.06-0.08,0.09-0.18,0.09-0.29c0-0.16-0.06-0.3-0.19-0.42c-0.35-0.32-0.76-0.56-1.23-0.73
		c-0.47-0.17-0.97-0.26-1.5-0.26c-0.79,0-1.48,0.17-2.05,0.52c-0.58,0.34-1.02,0.84-1.33,1.48c-0.31,0.65-0.47,1.4-0.47,2.27
		c0,0.88,0.16,1.64,0.47,2.28c0.31,0.64,0.76,1.14,1.33,1.48c0.58,0.34,1.26,0.52,2.05,0.52c0.53,0,1.03-0.09,1.5-0.26
		c0.47-0.17,0.88-0.41,1.23-0.73c0.13-0.12,0.19-0.26,0.19-0.42c0-0.12-0.03-0.22-0.09-0.3c-0.06-0.08-0.14-0.12-0.23-0.12
		c-0.09,0-0.21,0.04-0.34,0.13c-0.4,0.32-0.77,0.54-1.1,0.66c-0.33,0.13-0.71,0.19-1.13,0.19c-0.92,0-1.62-0.3-2.12-0.9
		c-0.49-0.6-0.74-1.45-0.74-2.56c0-1.1,0.25-1.95,0.74-2.54C71.95,48.22,72.66,47.92,73.58,47.92z"/>
	<path class="st0" d="M81.62,49.99c-0.42-0.25-0.9-0.37-1.45-0.37c-0.55,0-1.03,0.12-1.44,0.37c-0.41,0.25-0.74,0.6-0.96,1.05
		c-0.22,0.46-0.34,0.98-0.34,1.58c0,0.6,0.11,1.13,0.34,1.58c0.23,0.46,0.55,0.81,0.96,1.05c0.42,0.24,0.9,0.37,1.44,0.37
		c0.55,0,1.03-0.12,1.45-0.37c0.42-0.25,0.74-0.6,0.97-1.05c0.22-0.45,0.34-0.98,0.34-1.58c0-0.6-0.11-1.13-0.34-1.58
		C82.36,50.59,82.04,50.24,81.62,49.99z M81.48,54.27c-0.3,0.38-0.74,0.56-1.31,0.56c-0.57,0-1.01-0.19-1.31-0.57
		c-0.3-0.38-0.46-0.92-0.46-1.64c0-0.7,0.15-1.25,0.46-1.63c0.31-0.38,0.74-0.58,1.31-0.58c0.56,0,1,0.19,1.31,0.58
		c0.31,0.38,0.46,0.93,0.46,1.63C81.94,53.35,81.79,53.9,81.48,54.27z"/>
	<path class="st0" d="M90.79,49.63c-0.44,0-0.82,0.1-1.16,0.31c-0.34,0.21-0.59,0.48-0.76,0.83c-0.28-0.76-0.87-1.14-1.77-1.14
		c-0.4,0-0.76,0.09-1.07,0.27c-0.31,0.18-0.55,0.44-0.72,0.78v-0.57c0-0.14-0.04-0.26-0.13-0.34c-0.09-0.08-0.2-0.13-0.33-0.13
		c-0.14,0-0.26,0.04-0.35,0.13c-0.09,0.09-0.14,0.2-0.14,0.34v5.01c0,0.15,0.05,0.27,0.14,0.35c0.09,0.08,0.21,0.12,0.35,0.12
		c0.14,0,0.26-0.04,0.34-0.12c0.09-0.08,0.13-0.2,0.13-0.35v-2.9c0-0.55,0.14-0.99,0.42-1.32c0.28-0.32,0.66-0.49,1.13-0.49
		c0.41,0,0.71,0.12,0.9,0.36c0.19,0.24,0.29,0.62,0.29,1.15v3.19c0,0.15,0.04,0.27,0.13,0.35c0.09,0.08,0.2,0.12,0.34,0.12
		c0.14,0,0.26-0.04,0.35-0.12c0.09-0.08,0.14-0.2,0.14-0.35v-2.9c0-0.55,0.14-0.99,0.42-1.32c0.28-0.32,0.66-0.49,1.14-0.49
		c0.4,0,0.7,0.12,0.89,0.36c0.19,0.24,0.28,0.62,0.28,1.15v3.19c0,0.15,0.05,0.27,0.14,0.35c0.09,0.08,0.21,0.12,0.35,0.12
		c0.14,0,0.26-0.04,0.34-0.12c0.09-0.08,0.13-0.2,0.13-0.35v-3.22C92.71,50.39,92.07,49.63,90.79,49.63z"/>
	<path class="st0" d="M98.72,50.01c-0.39-0.25-0.84-0.38-1.34-0.38c-0.45,0-0.84,0.1-1.18,0.3c-0.34,0.2-0.59,0.48-0.77,0.84v-0.64
		c0-0.14-0.04-0.26-0.12-0.34c-0.08-0.09-0.2-0.13-0.35-0.13c-0.15,0-0.27,0.04-0.36,0.13c-0.09,0.09-0.13,0.2-0.13,0.34v7.16
		c0,0.14,0.04,0.25,0.13,0.33c0.09,0.09,0.21,0.13,0.36,0.13c0.15,0,0.27-0.04,0.35-0.13c0.08-0.08,0.12-0.2,0.12-0.34v-2.79
		c0.17,0.36,0.43,0.64,0.77,0.84c0.34,0.2,0.73,0.3,1.18,0.3c0.51,0,0.96-0.12,1.35-0.37c0.38-0.25,0.68-0.59,0.9-1.04
		c0.21-0.45,0.32-0.97,0.32-1.57s-0.11-1.13-0.32-1.58C99.41,50.61,99.11,50.26,98.72,50.01z M98.49,54.27
		c-0.31,0.38-0.74,0.57-1.31,0.57c-0.56,0-1-0.19-1.3-0.58c-0.31-0.38-0.46-0.93-0.46-1.63c0-0.7,0.15-1.25,0.46-1.63
		c0.3-0.38,0.74-0.57,1.3-0.57c0.56,0,1,0.2,1.31,0.59c0.31,0.39,0.46,0.94,0.46,1.63C98.96,53.35,98.8,53.89,98.49,54.27z"/>
	<path class="st0" d="M106.12,52.7c0.06-0.07,0.1-0.19,0.1-0.34c0-0.84-0.22-1.5-0.66-1.99c-0.44-0.49-1.04-0.74-1.79-0.74
		c-0.53,0-1,0.13-1.42,0.38c-0.42,0.25-0.74,0.61-0.97,1.06c-0.23,0.46-0.34,0.98-0.34,1.57c0,0.93,0.26,1.67,0.78,2.2
		c0.52,0.53,1.22,0.79,2.12,0.79c0.3,0,0.61-0.04,0.93-0.12c0.32-0.08,0.62-0.21,0.9-0.37c0.28-0.17,0.42-0.35,0.42-0.55
		c0-0.11-0.03-0.2-0.09-0.27c-0.06-0.07-0.14-0.11-0.23-0.11c-0.07,0-0.21,0.06-0.42,0.18c-0.25,0.14-0.49,0.25-0.71,0.34
		c-0.22,0.08-0.49,0.13-0.8,0.13c-1.22,0-1.86-0.68-1.93-2.04h3.82C105.96,52.81,106.06,52.77,106.12,52.7z M102.02,52.19
		c0.06-0.58,0.24-1.02,0.54-1.34c0.3-0.32,0.71-0.47,1.22-0.47c0.5,0,0.89,0.16,1.16,0.47c0.28,0.31,0.42,0.76,0.44,1.35H102.02z"/>
	<path class="st0" d="M110.26,54.85l-0.32-0.02c-0.36-0.02-0.62-0.13-0.8-0.33c-0.18-0.19-0.27-0.51-0.27-0.94v-3.03h1.32
		c0.13,0,0.23-0.03,0.3-0.1c0.07-0.07,0.11-0.16,0.11-0.27c0-0.12-0.04-0.21-0.11-0.28c-0.08-0.07-0.18-0.11-0.3-0.11h-1.32v-1.34
		c0-0.15-0.04-0.27-0.13-0.35c-0.09-0.08-0.2-0.12-0.34-0.12c-0.15,0-0.27,0.04-0.36,0.12c-0.09,0.08-0.13,0.2-0.13,0.35v1.34h-0.79
		c-0.14,0-0.24,0.04-0.31,0.11c-0.08,0.07-0.11,0.17-0.11,0.28c0,0.11,0.04,0.2,0.11,0.27c0.07,0.07,0.18,0.1,0.31,0.1h0.79v2.98
		c0,0.67,0.15,1.17,0.45,1.51c0.3,0.33,0.77,0.52,1.4,0.57l0.32,0.02c0.2,0.02,0.35-0.01,0.44-0.08c0.1-0.07,0.15-0.17,0.15-0.3
		C110.68,55,110.54,54.87,110.26,54.85z"/>
	<path class="st0" d="M112.11,47.21c-0.19,0-0.34,0.05-0.46,0.17c-0.12,0.11-0.18,0.25-0.18,0.43c0,0.18,0.06,0.33,0.18,0.44
		c0.12,0.11,0.27,0.17,0.46,0.17c0.19,0,0.34-0.05,0.46-0.17c0.12-0.11,0.18-0.26,0.18-0.44c0-0.17-0.06-0.32-0.18-0.43
		C112.46,47.26,112.3,47.21,112.11,47.21z"/>
	<path class="st0" d="M112.11,49.65c-0.14,0-0.26,0.04-0.35,0.13c-0.09,0.08-0.14,0.2-0.14,0.35v5.01c0,0.15,0.05,0.27,0.14,0.35
		c0.09,0.08,0.21,0.12,0.35,0.12c0.14,0,0.26-0.04,0.34-0.12c0.09-0.08,0.13-0.2,0.13-0.36v-5.01c0-0.15-0.04-0.27-0.13-0.35
		C112.37,49.69,112.26,49.65,112.11,49.65z"/>
	<path class="st0" d="M117.05,54.85l-0.32-0.02c-0.36-0.02-0.62-0.13-0.8-0.33c-0.18-0.19-0.27-0.51-0.27-0.94v-3.03h1.32
		c0.13,0,0.23-0.03,0.3-0.1c0.07-0.07,0.11-0.16,0.11-0.27c0-0.12-0.04-0.21-0.11-0.28c-0.07-0.07-0.18-0.11-0.3-0.11h-1.32v-1.34
		c0-0.15-0.04-0.27-0.13-0.35c-0.09-0.08-0.2-0.12-0.34-0.12c-0.15,0-0.27,0.04-0.36,0.12c-0.09,0.08-0.13,0.2-0.13,0.35v1.34h-0.79
		c-0.14,0-0.24,0.04-0.31,0.11c-0.07,0.07-0.11,0.17-0.11,0.28c0,0.11,0.04,0.2,0.11,0.27c0.07,0.07,0.18,0.1,0.31,0.1h0.79v2.98
		c0,0.67,0.15,1.17,0.45,1.51c0.3,0.33,0.77,0.52,1.4,0.57l0.32,0.02c0.2,0.02,0.35-0.01,0.44-0.08c0.1-0.07,0.15-0.17,0.15-0.3
		C117.47,55,117.33,54.87,117.05,54.85z"/>
	<path class="st0" d="M118.9,47.21c-0.19,0-0.34,0.05-0.46,0.17c-0.12,0.11-0.18,0.25-0.18,0.43c0,0.18,0.06,0.33,0.18,0.44
		c0.12,0.11,0.27,0.17,0.46,0.17c0.19,0,0.34-0.05,0.46-0.17c0.12-0.11,0.18-0.26,0.18-0.44c0-0.17-0.06-0.32-0.18-0.43
		C119.24,47.26,119.09,47.21,118.9,47.21z"/>
	<path class="st0" d="M118.9,49.65c-0.14,0-0.26,0.04-0.35,0.13c-0.09,0.08-0.14,0.2-0.14,0.35v5.01c0,0.15,0.05,0.27,0.14,0.35
		c0.09,0.08,0.21,0.12,0.35,0.12c0.14,0,0.26-0.04,0.34-0.12c0.09-0.08,0.13-0.2,0.13-0.36v-5.01c0-0.15-0.04-0.27-0.13-0.35
		C119.16,49.69,119.04,49.65,118.9,49.65z"/>
	<path class="st0" d="M125.75,49.66c-0.19,0-0.33,0.09-0.42,0.28l-1.98,4.43l-1.98-4.45c-0.04-0.09-0.1-0.15-0.17-0.2
		c-0.07-0.05-0.15-0.07-0.23-0.07c-0.13,0-0.24,0.04-0.35,0.13c-0.11,0.09-0.16,0.19-0.16,0.31c0,0.06,0.02,0.12,0.05,0.18l2.3,4.98
		c0.05,0.1,0.13,0.18,0.22,0.24c0.1,0.06,0.19,0.09,0.3,0.09c0.11,0,0.21-0.03,0.31-0.09c0.09-0.06,0.17-0.14,0.21-0.24l2.31-4.98
		c0.03-0.05,0.05-0.12,0.05-0.19c0-0.12-0.05-0.22-0.14-0.3C125.97,49.7,125.87,49.66,125.75,49.66z"/>
	<path class="st0" d="M127.75,47.21c-0.19,0-0.34,0.05-0.46,0.17c-0.12,0.11-0.18,0.25-0.18,0.43c0,0.18,0.06,0.33,0.18,0.44
		c0.12,0.11,0.27,0.17,0.46,0.17c0.19,0,0.34-0.05,0.46-0.17c0.12-0.11,0.18-0.26,0.18-0.44c0-0.17-0.06-0.32-0.18-0.43
		C128.1,47.26,127.94,47.21,127.75,47.21z"/>
	<path class="st0" d="M127.75,49.65c-0.14,0-0.26,0.04-0.35,0.13c-0.09,0.08-0.14,0.2-0.14,0.35v5.01c0,0.15,0.05,0.27,0.14,0.35
		c0.09,0.08,0.21,0.12,0.35,0.12c0.14,0,0.26-0.04,0.34-0.12c0.09-0.08,0.13-0.2,0.13-0.36v-5.01c0-0.15-0.04-0.27-0.13-0.35
		C128.01,49.69,127.9,49.65,127.75,49.65z"/>
	<path class="st0" d="M134.66,47.12c-0.15,0-0.27,0.04-0.35,0.13c-0.08,0.08-0.13,0.2-0.13,0.34v3.18
		c-0.17-0.36-0.43-0.64-0.76-0.84c-0.34-0.2-0.73-0.3-1.18-0.3c-0.51,0-0.95,0.12-1.34,0.37c-0.39,0.25-0.69,0.59-0.9,1.04
		c-0.21,0.45-0.32,0.97-0.32,1.57c0,0.6,0.11,1.13,0.32,1.58c0.21,0.46,0.51,0.81,0.9,1.06c0.39,0.25,0.84,0.38,1.34,0.38
		c0.45,0,0.84-0.1,1.18-0.3c0.34-0.2,0.59-0.48,0.76-0.84v0.64c0,0.14,0.04,0.26,0.13,0.34c0.08,0.09,0.2,0.13,0.35,0.13
		c0.15,0,0.27-0.04,0.36-0.13c0.09-0.09,0.13-0.2,0.13-0.34v-7.55c0-0.14-0.04-0.25-0.13-0.33
		C134.93,47.17,134.81,47.12,134.66,47.12z M133.73,54.26c-0.3,0.38-0.74,0.58-1.3,0.58c-0.56,0-1-0.2-1.31-0.59
		c-0.31-0.39-0.47-0.94-0.47-1.64c0-0.69,0.16-1.22,0.47-1.6c0.31-0.38,0.75-0.57,1.31-0.57c0.56,0,0.99,0.19,1.3,0.57
		c0.3,0.38,0.46,0.92,0.46,1.63C134.18,53.33,134.03,53.88,133.73,54.26z"/>
	<path class="st0" d="M139.29,49.63c-0.35,0-0.7,0.05-1.05,0.14c-0.35,0.09-0.67,0.22-0.94,0.37c-0.15,0.09-0.26,0.17-0.33,0.26
		c-0.07,0.08-0.1,0.18-0.1,0.29c0,0.11,0.03,0.2,0.1,0.27c0.06,0.07,0.14,0.11,0.24,0.11c0.09,0,0.24-0.07,0.45-0.2
		c0.55-0.29,1.1-0.44,1.64-0.44c0.44,0,0.75,0.11,0.94,0.33c0.19,0.22,0.29,0.57,0.29,1.04v0.39h-0.26c-0.9,0-1.61,0.05-2.11,0.16
		c-0.51,0.11-0.87,0.28-1.09,0.52c-0.22,0.24-0.33,0.58-0.33,1.01c0,0.32,0.09,0.62,0.27,0.89c0.18,0.27,0.43,0.48,0.74,0.63
		c0.31,0.15,0.65,0.22,1.03,0.22c0.4,0,0.76-0.09,1.07-0.28c0.31-0.19,0.54-0.45,0.69-0.79v0.57c0,0.14,0.04,0.26,0.13,0.34
		c0.09,0.09,0.2,0.13,0.34,0.13c0.14,0,0.25-0.04,0.34-0.13c0.08-0.09,0.12-0.2,0.12-0.34V51.9
		C141.46,50.39,140.73,49.63,139.29,49.63z M140.52,53.15c0,0.51-0.15,0.92-0.46,1.24c-0.3,0.32-0.69,0.48-1.17,0.48
		c-0.34,0-0.62-0.1-0.85-0.3c-0.23-0.2-0.34-0.46-0.34-0.77c0-0.27,0.08-0.47,0.23-0.61c0.15-0.14,0.41-0.24,0.78-0.3
		c0.36-0.06,0.89-0.09,1.59-0.09h0.21V53.15z"/>
	<path class="st0" d="M147.85,47.12c-0.15,0-0.27,0.04-0.35,0.13c-0.08,0.08-0.13,0.2-0.13,0.34v3.18
		c-0.17-0.36-0.43-0.64-0.76-0.84c-0.34-0.2-0.73-0.3-1.18-0.3c-0.51,0-0.95,0.12-1.34,0.37c-0.39,0.25-0.69,0.59-0.9,1.04
		c-0.21,0.45-0.32,0.97-0.32,1.57c0,0.6,0.11,1.13,0.32,1.58c0.21,0.46,0.51,0.81,0.9,1.06c0.39,0.25,0.84,0.38,1.34,0.38
		c0.45,0,0.84-0.1,1.18-0.3c0.34-0.2,0.59-0.48,0.76-0.84v0.64c0,0.14,0.04,0.26,0.13,0.34c0.08,0.09,0.2,0.13,0.35,0.13
		c0.15,0,0.27-0.04,0.36-0.13c0.09-0.09,0.13-0.2,0.13-0.34v-7.55c0-0.14-0.04-0.25-0.13-0.33C148.12,47.17,148,47.12,147.85,47.12z
		 M146.92,54.26c-0.3,0.38-0.74,0.58-1.3,0.58c-0.56,0-1-0.2-1.31-0.59c-0.31-0.39-0.47-0.94-0.47-1.64c0-0.69,0.16-1.22,0.47-1.6
		c0.31-0.38,0.75-0.57,1.31-0.57c0.56,0,0.99,0.19,1.3,0.57c0.3,0.38,0.46,0.92,0.46,1.63C147.38,53.33,147.23,53.88,146.92,54.26z"
		/>
	<path class="st0" d="M158.81,52.94c-0.17-0.25-0.34-0.45-0.51-0.59c-0.17-0.14-0.38-0.24-0.61-0.3c0.67-0.12,1.19-0.39,1.56-0.8
		c0.37-0.42,0.55-0.95,0.55-1.6c0-0.8-0.25-1.41-0.74-1.83c-0.49-0.42-1.22-0.63-2.17-0.63h-2.97c-0.23,0-0.41,0.06-0.54,0.19
		c-0.13,0.13-0.2,0.3-0.2,0.53v6.94c0,0.24,0.07,0.42,0.21,0.56c0.14,0.14,0.32,0.21,0.55,0.21c0.23,0,0.41-0.07,0.55-0.21
		c0.13-0.14,0.2-0.33,0.2-0.56v-2.66h1.16c0.29,0,0.52,0.05,0.69,0.15c0.18,0.1,0.35,0.28,0.5,0.53l1.58,2.4
		c0.08,0.12,0.18,0.21,0.29,0.27c0.11,0.06,0.24,0.09,0.36,0.09c0.2,0,0.37-0.06,0.52-0.18c0.15-0.12,0.22-0.27,0.22-0.45
		c0-0.14-0.05-0.27-0.14-0.42L158.81,52.94z M156.68,51.01h-1.99v-2.65h1.99c0.58,0,1,0.11,1.27,0.31c0.27,0.21,0.4,0.54,0.4,1
		c0,0.45-0.13,0.79-0.4,1C157.68,50.91,157.26,51.01,156.68,51.01z"/>
	<path class="st0" d="M166.4,52.4c0-0.57-0.11-1.06-0.32-1.48c-0.21-0.42-0.51-0.74-0.9-0.97c-0.39-0.23-0.84-0.34-1.36-0.34
		c-0.55,0-1.04,0.13-1.47,0.38c-0.43,0.25-0.77,0.61-1,1.07c-0.24,0.46-0.36,0.98-0.36,1.58c0,0.93,0.27,1.67,0.82,2.21
		c0.55,0.54,1.28,0.81,2.22,0.81c0.31,0,0.63-0.05,0.97-0.14c0.34-0.09,0.65-0.21,0.91-0.36c0.29-0.17,0.44-0.37,0.44-0.62
		c0-0.17-0.04-0.31-0.12-0.42c-0.08-0.1-0.19-0.15-0.33-0.15c-0.11,0-0.29,0.06-0.52,0.19c-0.24,0.11-0.46,0.2-0.66,0.26
		c-0.19,0.06-0.42,0.09-0.67,0.09c-0.5,0-0.88-0.13-1.14-0.38c-0.26-0.26-0.42-0.66-0.46-1.2h3.5
		C166.25,52.91,166.4,52.74,166.4,52.4z M162.45,52.12c0.05-0.47,0.19-0.84,0.43-1.09c0.24-0.25,0.56-0.38,0.97-0.38
		c0.4,0,0.7,0.12,0.93,0.37c0.22,0.25,0.34,0.61,0.36,1.1H162.45z"/>
	<path class="st0" d="M170.98,49.6c-0.42,0-0.8,0.09-1.13,0.26c-0.33,0.17-0.6,0.42-0.8,0.75v-0.32c0-0.2-0.06-0.36-0.2-0.48
		c-0.13-0.12-0.3-0.18-0.5-0.18c-0.23,0-0.41,0.06-0.55,0.19c-0.13,0.13-0.2,0.29-0.2,0.5v4.59c0,0.22,0.06,0.4,0.2,0.52
		c0.13,0.13,0.31,0.19,0.54,0.19c0.23,0,0.41-0.06,0.55-0.19c0.13-0.13,0.2-0.3,0.2-0.52v-2.65c0-0.45,0.13-0.81,0.39-1.08
		c0.26-0.27,0.6-0.4,1.03-0.4c0.36,0,0.63,0.1,0.8,0.31c0.17,0.21,0.26,0.53,0.26,0.98v2.84c0,0.22,0.07,0.4,0.2,0.52
		c0.13,0.13,0.32,0.19,0.55,0.19c0.23,0,0.41-0.06,0.54-0.19c0.13-0.13,0.2-0.3,0.2-0.52v-2.92c0-0.8-0.17-1.4-0.51-1.79
		C172.2,49.8,171.68,49.6,170.98,49.6z"/>
	<path class="st0" d="M178.76,49.97c-0.45-0.25-0.97-0.37-1.56-0.37s-1.11,0.12-1.56,0.37c-0.45,0.25-0.79,0.6-1.04,1.05
		c-0.25,0.45-0.37,0.99-0.37,1.6c0,0.61,0.12,1.14,0.37,1.6c0.24,0.46,0.59,0.81,1.04,1.06c0.45,0.25,0.97,0.37,1.56,0.37
		s1.11-0.12,1.56-0.37c0.45-0.25,0.79-0.6,1.03-1.06c0.24-0.46,0.36-0.99,0.36-1.6c0-0.61-0.12-1.14-0.36-1.6
		C179.55,50.57,179.21,50.22,178.76,49.97z M178.29,54.02c-0.25,0.32-0.62,0.47-1.1,0.47c-0.47,0-0.84-0.16-1.09-0.47
		c-0.25-0.32-0.38-0.78-0.38-1.4c0-0.61,0.13-1.07,0.39-1.39c0.26-0.32,0.62-0.48,1.1-0.48c0.47,0,0.84,0.16,1.09,0.48
		c0.25,0.32,0.38,0.78,0.38,1.39C178.67,53.23,178.54,53.7,178.29,54.02z"/>
	<path class="st0" d="M185.93,49.63c-0.13,0-0.24,0.04-0.35,0.11c-0.11,0.07-0.19,0.18-0.25,0.32l-1.65,3.65l-1.66-3.67
		c-0.13-0.28-0.34-0.42-0.63-0.42c-0.2,0-0.37,0.06-0.53,0.19c-0.15,0.13-0.23,0.28-0.23,0.46c0,0.1,0.02,0.19,0.06,0.27l2.21,4.59
		c0.07,0.15,0.18,0.27,0.31,0.34c0.14,0.08,0.28,0.12,0.43,0.12c0.16,0,0.3-0.04,0.43-0.12c0.13-0.08,0.23-0.19,0.3-0.34l2.19-4.59
		c0.05-0.1,0.07-0.19,0.07-0.29c0-0.18-0.07-0.33-0.22-0.46C186.28,49.69,186.11,49.63,185.93,49.63z"/>
	<path class="st0" d="M189.96,49.6c-0.37,0-0.75,0.04-1.13,0.13c-0.38,0.09-0.71,0.21-0.99,0.36c-0.16,0.09-0.27,0.18-0.34,0.28
		c-0.07,0.1-0.1,0.22-0.1,0.35c0,0.17,0.05,0.3,0.14,0.4c0.09,0.1,0.21,0.15,0.35,0.15c0.1,0,0.25-0.05,0.45-0.15
		c0.32-0.13,0.61-0.22,0.84-0.29c0.24-0.07,0.47-0.1,0.7-0.1c0.37,0,0.64,0.09,0.81,0.27c0.17,0.18,0.25,0.46,0.25,0.85v0.27h-0.3
		c-0.86,0-1.54,0.05-2.03,0.17c-0.49,0.11-0.85,0.29-1.06,0.53c-0.22,0.25-0.33,0.58-0.33,1.01c0,0.34,0.09,0.65,0.27,0.92
		c0.18,0.28,0.43,0.5,0.75,0.65c0.32,0.16,0.67,0.24,1.06,0.24c0.38,0,0.71-0.09,1-0.26c0.29-0.17,0.5-0.42,0.64-0.72v0.26
		c0,0.21,0.06,0.37,0.2,0.5c0.13,0.13,0.3,0.19,0.5,0.19c0.22,0,0.4-0.06,0.52-0.18c0.13-0.12,0.19-0.29,0.19-0.5v-2.9
		c0-0.81-0.2-1.42-0.59-1.82C191.36,49.8,190.76,49.6,189.96,49.6z M190.93,53.15c0,0.42-0.12,0.76-0.37,1.03
		c-0.25,0.26-0.57,0.4-0.97,0.4c-0.26,0-0.48-0.08-0.66-0.24c-0.18-0.16-0.27-0.37-0.27-0.62c0-0.21,0.06-0.37,0.19-0.49
		c0.13-0.12,0.34-0.2,0.63-0.25c0.29-0.05,0.7-0.07,1.23-0.07h0.21V53.15z"/>
	<path class="st0" d="M198.52,49.97c-0.39-0.25-0.83-0.37-1.34-0.37c-0.41,0-0.78,0.09-1.1,0.26c-0.32,0.17-0.57,0.41-0.75,0.73
		v-2.8c0-0.21-0.07-0.37-0.2-0.49c-0.14-0.12-0.31-0.18-0.53-0.18c-0.22,0-0.4,0.06-0.54,0.19c-0.14,0.13-0.21,0.29-0.21,0.5v7.1
		c0,0.21,0.06,0.38,0.2,0.51c0.13,0.13,0.31,0.19,0.53,0.19c0.22,0,0.4-0.06,0.53-0.19c0.13-0.13,0.2-0.3,0.2-0.51v-0.3
		c0.17,0.32,0.42,0.58,0.75,0.76c0.33,0.18,0.7,0.27,1.12,0.27c0.5,0,0.94-0.13,1.33-0.38c0.39-0.25,0.7-0.61,0.91-1.07
		c0.22-0.46,0.33-0.99,0.33-1.6c0-0.6-0.11-1.13-0.33-1.58C199.21,50.56,198.91,50.22,198.52,49.97z M197.88,53.99
		c-0.26,0.33-0.62,0.5-1.09,0.5c-0.47,0-0.84-0.16-1.1-0.49c-0.26-0.32-0.39-0.79-0.39-1.39c0-0.6,0.13-1.06,0.39-1.38
		c0.26-0.32,0.62-0.48,1.1-0.48c0.47,0,0.84,0.16,1.1,0.47c0.26,0.32,0.39,0.77,0.39,1.36C198.27,53.19,198.14,53.66,197.88,53.99z"
		/>
	<path class="st0" d="M201.71,47.12c-0.21,0-0.39,0.06-0.53,0.18c-0.14,0.12-0.21,0.29-0.21,0.52v7.08c0,0.23,0.07,0.41,0.21,0.53
		c0.14,0.12,0.31,0.18,0.53,0.18c0.21,0,0.39-0.06,0.54-0.18c0.14-0.12,0.21-0.3,0.21-0.53v-7.08c0-0.23-0.07-0.4-0.21-0.52
		C202.11,47.18,201.93,47.12,201.71,47.12z"/>
	<path class="st0" d="M208.58,53.96c-0.11,0-0.29,0.06-0.52,0.19c-0.24,0.11-0.46,0.2-0.66,0.26c-0.19,0.06-0.42,0.09-0.67,0.09
		c-0.5,0-0.88-0.13-1.14-0.38c-0.26-0.26-0.42-0.66-0.46-1.2h3.5c0.3,0,0.45-0.17,0.45-0.51c0-0.57-0.11-1.06-0.32-1.48
		c-0.21-0.42-0.51-0.74-0.9-0.97c-0.39-0.23-0.84-0.34-1.36-0.34c-0.55,0-1.03,0.13-1.47,0.38c-0.43,0.25-0.77,0.61-1,1.07
		c-0.24,0.46-0.36,0.98-0.36,1.58c0,0.93,0.27,1.67,0.82,2.21c0.55,0.54,1.28,0.81,2.22,0.81c0.31,0,0.63-0.05,0.97-0.14
		c0.34-0.09,0.65-0.21,0.91-0.36c0.29-0.17,0.44-0.37,0.44-0.62c0-0.17-0.04-0.31-0.12-0.42C208.83,54.01,208.72,53.96,208.58,53.96
		z M205.56,51.03c0.24-0.25,0.56-0.38,0.97-0.38c0.4,0,0.7,0.12,0.93,0.37c0.22,0.25,0.34,0.61,0.36,1.1h-2.68
		C205.18,51.64,205.32,51.28,205.56,51.03z"/>
	<path class="st0" d="M72.94,41.51c1.52,0,2.75-1.23,2.75-2.75V30.5h3.2c0.34,0,0.68-0.01,1.02-0.02c0.34-0.01,0.67-0.04,0.98-0.06
		l5.42,9.79c0.45,0.81,1.3,1.31,2.23,1.31c1.96,0,3.18-2.11,2.21-3.81l-4.95-8.65c1.45-0.71,2.64-1.71,3.57-3.01
		c0.92-1.29,1.39-2.84,1.39-4.63c0-3.04-1.12-5.29-3.37-6.75c-2.25-1.45-4.95-2.18-8.11-2.18h-7.01c-1.15,0-2.08,0.93-2.08,2.08
		v24.2C70.19,40.28,71.42,41.51,72.94,41.51z M75.7,17.09h3.42c1.82,0,3.24,0.36,4.27,1.07c1.02,0.71,1.54,1.88,1.54,3.5
		c0,1.54-0.54,2.64-1.62,3.31c-1.08,0.67-2.45,1-4.1,1h-3.5V17.09z"/>
	<path class="st0" d="M112.88,37.98c-0.46-1.14-1.74-1.68-2.89-1.26c-0.2,0.07-0.4,0.14-0.59,0.2c-0.75,0.24-1.6,0.36-2.54,0.36
		c-1.62,0-2.93-0.41-3.93-1.22c-1-0.81-1.62-1.9-1.88-3.27h13.96v-1.71c0-2.93-0.76-5.47-2.28-7.62c-1.52-2.15-3.91-3.22-7.15-3.22
		c-3.21,0-5.76,1-7.62,2.99c-1.87,1.99-2.8,4.64-2.8,7.94c0,3.3,1.03,5.93,3.1,7.9c2.06,1.96,4.89,2.95,8.47,2.95
		c0.88,0,2.01-0.17,3.39-0.51c0.58-0.14,1.12-0.32,1.62-0.53c1.12-0.47,1.61-1.8,1.16-2.93L112.88,37.98z M102.59,26.04
		c0.77-0.7,1.72-1.05,2.86-1.05c1.11,0,2.03,0.33,2.78,1c0.74,0.67,1.25,1.7,1.54,3.1h-8.67C101.32,27.75,101.82,26.73,102.59,26.04
		z"/>
	<path class="st0" d="M138.92,38.74v-10.2c0-2.39-0.59-4.41-1.77-6.06c-1.18-1.65-3.18-2.48-6-2.48c-1.11,0-2.37,0.27-3.78,0.81
		c-1.41,0.54-2.58,1.28-3.52,2.22l-1.08-1.45c-0.37-0.49-0.94-0.77-1.55-0.77c-1.07,0-1.94,0.87-1.94,1.94v15.99
		c0,1.53,1.24,2.77,2.77,2.77h0c1.53,0,2.77-1.24,2.77-2.77V26.78c0.71-0.54,1.5-1.02,2.37-1.43c0.87-0.41,1.7-0.62,2.5-0.62
		c1.19,0,2.1,0.35,2.73,1.05c0.63,0.7,0.94,1.7,0.94,3.01v9.95c0,1.53,1.24,2.77,2.77,2.77C137.68,41.51,138.92,40.27,138.92,38.74z
		"/>
	<path class="st0" d="M157.13,38.74V26.31c0.65-0.45,1.34-0.83,2.07-1.13c0.73-0.3,1.44-0.45,2.16-0.45c1.17,0,2.06,0.35,2.69,1.05
		c0.63,0.7,0.94,1.7,0.94,3.01v9.95c0,1.53,1.24,2.78,2.78,2.78h0.04c1.53,0,2.78-1.24,2.78-2.78v-10.2c0-0.37-0.02-0.75-0.07-1.12
		c0.12-0.29,0.24-0.6,0.36-0.89c0.6-0.42,1.26-0.81,1.98-1.15c0.88-0.43,1.72-0.64,2.52-0.64c1.2,0,2.11,0.35,2.73,1.05
		c0.63,0.7,0.94,1.7,0.94,3.01v9.95c0,1.53,1.24,2.78,2.78,2.78h0.04c1.53,0,2.78-1.24,2.78-2.78v-10.2c0-2.39-0.59-4.41-1.77-6.06
		c-1.18-1.65-3.18-2.48-6-2.48c-1.17,0-2.48,0.29-3.95,0.88c-1.47,0.58-2.64,1.37-3.52,2.37c-0.6-1-1.44-1.79-2.52-2.37
		c-1.08-0.58-2.43-0.88-4.06-0.88c-1.05,0-2.24,0.23-3.56,0.7c-1.33,0.47-2.46,1.13-3.39,1.99l-0.79-1.09
		c-0.36-0.5-0.94-0.79-1.56-0.79c-1.06,0-1.92,0.86-1.92,1.92v16.01c0,1.53,1.24,2.78,2.78,2.78S157.13,40.27,157.13,38.74z"/>
	<path class="st0" d="M207.46,41.51c0.74,0,1.16-0.84,0.71-1.43l-5.82-7.73c-0.24-0.31-0.24-0.74-0.01-1.06l6.57-9.06
		c0.43-0.59,0.01-1.42-0.72-1.42h-3.12c-0.75,0-1.46,0.35-1.93,0.94l-3.76,4.8c-0.36,0.46-1.07,0.46-1.42-0.01l-3.98-5.3
		c-0.2-0.26-0.52-0.39-0.84-0.35l-3.65,0.52c-0.67,0.1-1,0.88-0.59,1.43l5.8,7.65c0.24,0.32,0.24,0.75,0.01,1.07l-6.35,8.54
		c-0.44,0.59-0.02,1.43,0.72,1.43h3.19c0.75,0,1.45-0.34,1.92-0.93l3.47-4.37c0.36-0.45,1.05-0.45,1.41,0.01l3.35,4.34
		c0.46,0.6,1.18,0.95,1.94,0.95H207.46z"/>
</g>
</svg>
