<?xml version="1.0" encoding="utf-8"?>
<!-- Generator: Adobe Illustrator 21.0.0, SVG Export Plug-In . SVG Version: 6.00 Build 0)  -->
<svg version="1.1" id="Capa_1" xmlns="http://www.w3.org/2000/svg" xmlns:xlink="http://www.w3.org/1999/xlink" x="0px" y="0px"
	 viewBox="0 0 47 60" style="enable-background:new 0 0 47 60;" xml:space="preserve">
<style type="text/css">
	.st0{clip-path:url(#SVGID_2_);}
	.st1{clip-path:url(#SVGID_4_);enable-background:new    ;}
	.st2{clip-path:url(#SVGID_6_);}
	.st3{clip-path:url(#SVGID_8_);}
	.st4{clip-path:url(#SVGID_10_);fill:#0B050D;}
	.st5{clip-path:url(#SVGID_12_);}
	.st6{clip-path:url(#SVGID_14_);enable-background:new    ;}
	.st7{clip-path:url(#SVGID_16_);}
	.st8{clip-path:url(#SVGID_18_);}
	.st9{clip-path:url(#SVGID_20_);fill:#0B050D;}
	.st10{clip-path:url(#SVGID_22_);}
	.st11{clip-path:url(#SVGID_24_);fill:#0B050D;}
	.st12{clip-path:url(#SVGID_26_);}
	.st13{clip-path:url(#SVGID_28_);fill:#0B050D;}
	.st14{clip-path:url(#SVGID_30_);}
	.st15{clip-path:url(#SVGID_32_);fill:#0B050D;}
	.st16{clip-path:url(#SVGID_34_);}
	.st17{clip-path:url(#SVGID_36_);fill:#0B050D;}
	.st18{clip-path:url(#SVGID_38_);}
	.st19{clip-path:url(#SVGID_40_);enable-background:new    ;}
	.st20{clip-path:url(#SVGID_42_);}
	.st21{clip-path:url(#SVGID_44_);}
	.st22{clip-path:url(#SVGID_46_);fill:#0B050D;}
	.st23{clip-path:url(#SVGID_48_);}
	.st24{clip-path:url(#SVGID_50_);enable-background:new    ;}
	.st25{clip-path:url(#SVGID_52_);}
	.st26{clip-path:url(#SVGID_54_);}
	.st27{clip-path:url(#SVGID_56_);fill:#0B050D;}
	.st28{clip-path:url(#SVGID_58_);}
	.st29{clip-path:url(#SVGID_60_);fill:#0B050D;}
	.st30{clip-path:url(#SVGID_62_);}
	.st31{clip-path:url(#SVGID_64_);fill:#0B050D;}
	.st32{clip-path:url(#SVGID_66_);}
	.st33{clip-path:url(#SVGID_68_);fill:#0B050D;}
	.st34{clip-path:url(#SVGID_70_);}
	.st35{clip-path:url(#SVGID_72_);fill:#0B050D;}
</style>
<g>
	<defs>
		<rect id="SVGID_1_" x="8.5" y="45.2" width="11.4" height="8.9"/>
	</defs>
	<clipPath id="SVGID_2_">
		<use xlink:href="#SVGID_1_"  style="overflow:visible;"/>
	</clipPath>
	<g class="st0">
		<defs>
			<rect id="SVGID_3_" x="8" y="5.2" width="32" height="49"/>
		</defs>
		<clipPath id="SVGID_4_">
			<use xlink:href="#SVGID_3_"  style="overflow:visible;"/>
		</clipPath>
		<g class="st1">
			<g>
				<defs>
					<rect id="SVGID_5_" x="8" y="45.2" width="12" height="9"/>
				</defs>
				<clipPath id="SVGID_6_">
					<use xlink:href="#SVGID_5_"  style="overflow:visible;"/>
				</clipPath>
				<g class="st2">
					<defs>
						<path id="SVGID_7_" d="M19.2,45.2c-0.3,0-0.5,0.2-0.6,0.4L17.2,49l-0.1,0.4L17,49l-1-3.2c0,0,0,0,0,0v0
							c-0.1-0.3-0.3-0.5-0.6-0.5h-1.6c-0.4,0-0.7,0.3-0.7,0.7c0,0.1,0,0.2,0.1,0.4l0.2,0.7l-0.8,2l-0.1,0.4L12.4,49l-1-3.2
							c0,0,0,0,0,0v0c-0.1-0.3-0.3-0.5-0.6-0.5H9.1c-0.4,0-0.6,0.3-0.6,0.7c0,0.1,0,0.2,0.1,0.4l2.4,7.3c0.1,0.3,0.3,0.5,0.7,0.5
							c0.3,0,0.6-0.2,0.6-0.5l1.7-4.3l0.1-0.4l0.1,0.4l1.4,4.3c0.1,0.3,0.3,0.5,0.7,0.5c0.3,0,0.6-0.2,0.7-0.5l2.9-7.4
							c0-0.1,0.1-0.2,0.1-0.3C19.8,45.5,19.5,45.2,19.2,45.2"/>
					</defs>
					<clipPath id="SVGID_8_">
						<use xlink:href="#SVGID_7_"  style="overflow:visible;"/>
					</clipPath>
					<g class="st3">
						<defs>
							<rect id="SVGID_9_" x="8" y="45.2" width="12" height="9"/>
						</defs>
						<clipPath id="SVGID_10_">
							<use xlink:href="#SVGID_9_"  style="overflow:visible;"/>
						</clipPath>
						<rect x="3.5" y="40.2" class="st4" width="21.4" height="18.9"/>
					</g>
				</g>
			</g>
		</g>
	</g>
</g>
<g>
	<defs>
		<rect id="SVGID_11_" x="20.5" y="45.2" width="11.4" height="8.9"/>
	</defs>
	<clipPath id="SVGID_12_">
		<use xlink:href="#SVGID_11_"  style="overflow:visible;"/>
	</clipPath>
	<g class="st5">
		<defs>
			<rect id="SVGID_13_" x="8" y="5.2" width="32" height="49"/>
		</defs>
		<clipPath id="SVGID_14_">
			<use xlink:href="#SVGID_13_"  style="overflow:visible;"/>
		</clipPath>
		<g class="st6">
			<g>
				<defs>
					<rect id="SVGID_15_" x="20" y="45.2" width="12" height="9"/>
				</defs>
				<clipPath id="SVGID_16_">
					<use xlink:href="#SVGID_15_"  style="overflow:visible;"/>
				</clipPath>
				<g class="st7">
					<defs>
						<path id="SVGID_17_" d="M31.2,45.2c-0.3,0-0.5,0.2-0.6,0.4L29.2,49l-0.1,0.4L29,49l-1-3.2c0,0,0,0,0,0v0
							c-0.1-0.3-0.3-0.5-0.6-0.5h-1.6c-0.4,0-0.6,0.3-0.6,0.7c0,0.1,0,0.2,0.1,0.4l0.2,0.7l-0.8,2l-0.1,0.4L24.4,49l-1-3.2
							c0,0,0,0,0,0v0c-0.1-0.3-0.3-0.5-0.6-0.5h-1.6c-0.4,0-0.7,0.3-0.7,0.7c0,0.1,0,0.2,0.1,0.4l2.4,7.3c0.1,0.3,0.3,0.5,0.7,0.5
							c0.3,0,0.6-0.2,0.6-0.5l1.7-4.3l0.1-0.4l0.1,0.4l1.4,4.3c0.1,0.3,0.3,0.5,0.7,0.5c0.3,0,0.6-0.2,0.7-0.5l2.9-7.4
							c0-0.1,0.1-0.2,0.1-0.3C31.8,45.5,31.5,45.2,31.2,45.2"/>
					</defs>
					<clipPath id="SVGID_18_">
						<use xlink:href="#SVGID_17_"  style="overflow:visible;"/>
					</clipPath>
					<g class="st8">
						<defs>
							<rect id="SVGID_19_" x="20" y="45.2" width="12" height="9"/>
						</defs>
						<clipPath id="SVGID_20_">
							<use xlink:href="#SVGID_19_"  style="overflow:visible;"/>
						</clipPath>
						<rect x="15.5" y="40.2" class="st9" width="21.4" height="18.9"/>
					</g>
				</g>
			</g>
		</g>
	</g>
</g>
<g>
	<defs>
		<path id="SVGID_21_" d="M39,45.2h-5.6c-0.3,0-0.6,0.3-0.6,0.6v0v1.5v6.2c0,0,0,0,0,0h0c0,0.3,0.3,0.6,0.6,0.6H35
			c0.3,0,0.6-0.3,0.6-0.6v-3.6c0,0,2.3,0,2.3,0c0.3,0,0.6-0.3,0.6-0.6c0-0.3-0.3-0.6-0.6-0.6h-2.3l0-2H39c0.3,0,0.6-0.3,0.6-0.7
			C39.6,45.5,39.3,45.2,39,45.2"/>
	</defs>
	<clipPath id="SVGID_22_">
		<use xlink:href="#SVGID_21_"  style="overflow:visible;"/>
	</clipPath>
	<g class="st10">
		<defs>
			<rect id="SVGID_23_" x="8" y="5.2" width="32" height="49"/>
		</defs>
		<clipPath id="SVGID_24_">
			<use xlink:href="#SVGID_23_"  style="overflow:visible;"/>
		</clipPath>
		<rect x="27.7" y="40.2" class="st11" width="16.9" height="18.9"/>
	</g>
</g>
<g>
	<defs>
		<path id="SVGID_25_" d="M30.2,20.9c1,1.2,1.1,4.7,3.7,3.3c1.5-0.8,1.5-4.3-0.5-5.6c-1.7-1-2.6,0.4-3.2,2
			C30.2,20.7,30.2,20.8,30.2,20.9"/>
	</defs>
	<clipPath id="SVGID_26_">
		<use xlink:href="#SVGID_25_"  style="overflow:visible;"/>
	</clipPath>
	<g class="st12">
		<defs>
			<rect id="SVGID_27_" x="8" y="5.2" width="32" height="49"/>
		</defs>
		<clipPath id="SVGID_28_">
			<use xlink:href="#SVGID_27_"  style="overflow:visible;"/>
		</clipPath>
		<rect x="25.2" y="13.2" class="st13" width="14.9" height="16.3"/>
	</g>
</g>
<g>
	<defs>
		<path id="SVGID_29_" d="M26.2,20.4c-1.1,0.9-1.8,3.4-3.8,2.6c-1.6-0.8-1.8-4.1,1-5.6c1.9-0.9,2.9,0.9,2.9,2.8
			C26.4,20.2,26.3,20.3,26.2,20.4"/>
	</defs>
	<clipPath id="SVGID_30_">
		<use xlink:href="#SVGID_29_"  style="overflow:visible;"/>
	</clipPath>
	<g class="st14">
		<defs>
			<rect id="SVGID_31_" x="8" y="5.2" width="32" height="49"/>
		</defs>
		<clipPath id="SVGID_32_">
			<use xlink:href="#SVGID_31_"  style="overflow:visible;"/>
		</clipPath>
		<rect x="16.3" y="12.1" class="st15" width="15.1" height="16"/>
	</g>
</g>
<g>
	<defs>
		<path id="SVGID_33_" d="M28.9,26.7c1.1-0.1,0.8-1.1,0-1.4c-0.7-0.2-1.8-0.4-2.6-0.3c-1.4,0-1.3,1.1-0.6,1.3
			c0.5,0.2,0.9,0.3,1.3,0.9C27.5,28,27.3,26.9,28.9,26.7"/>
	</defs>
	<clipPath id="SVGID_34_">
		<use xlink:href="#SVGID_33_"  style="overflow:visible;"/>
	</clipPath>
	<g class="st16">
		<defs>
			<rect id="SVGID_35_" x="8" y="5.2" width="32" height="49"/>
		</defs>
		<clipPath id="SVGID_36_">
			<use xlink:href="#SVGID_35_"  style="overflow:visible;"/>
		</clipPath>
		<rect x="20.2" y="20" class="st17" width="14.4" height="12.5"/>
	</g>
</g>
<g>
	<defs>
		<rect id="SVGID_37_" x="33.4" y="7.1" width="6.6" height="6.6"/>
	</defs>
	<clipPath id="SVGID_38_">
		<use xlink:href="#SVGID_37_"  style="overflow:visible;"/>
	</clipPath>
	<g class="st18">
		<defs>
			<rect id="SVGID_39_" x="8" y="5.2" width="32" height="49"/>
		</defs>
		<clipPath id="SVGID_40_">
			<use xlink:href="#SVGID_39_"  style="overflow:visible;"/>
		</clipPath>
		<g class="st19">
			<g>
				<defs>
					<rect id="SVGID_41_" x="33" y="6.2" width="8" height="9"/>
				</defs>
				<clipPath id="SVGID_42_">
					<use xlink:href="#SVGID_41_"  style="overflow:visible;"/>
				</clipPath>
				<g class="st20">
					<defs>
						<path id="SVGID_43_" d="M33.9,8.7c1.3-2.3,3.7-1.8,4.8-0.7c1.3,1.2,1.5,2.6,1,3.6c-0.7,1.3-2.4,3-3.5,1.4
							c-0.5-0.7-1.5-1.5-2.1-1.8C33.3,10.9,33.1,10.1,33.9,8.7"/>
					</defs>
					<clipPath id="SVGID_44_">
						<use xlink:href="#SVGID_43_"  style="overflow:visible;"/>
					</clipPath>
					<g class="st21">
						<defs>
							<rect id="SVGID_45_" x="33" y="6.2" width="7" height="8"/>
						</defs>
						<clipPath id="SVGID_46_">
							<use xlink:href="#SVGID_45_"  style="overflow:visible;"/>
						</clipPath>
						<rect x="28.4" y="2.1" class="st22" width="16.6" height="16.6"/>
					</g>
				</g>
			</g>
		</g>
	</g>
</g>
<g>
	<defs>
		<rect id="SVGID_47_" x="8" y="5.2" width="31.8" height="36.7"/>
	</defs>
	<clipPath id="SVGID_48_">
		<use xlink:href="#SVGID_47_"  style="overflow:visible;"/>
	</clipPath>
	<g class="st23">
		<defs>
			<rect id="SVGID_49_" x="8" y="5.2" width="32" height="49"/>
		</defs>
		<clipPath id="SVGID_50_">
			<use xlink:href="#SVGID_49_"  style="overflow:visible;"/>
		</clipPath>
		<g class="st24">
			<g>
				<defs>
					<rect id="SVGID_51_" x="7" y="4.2" width="35" height="39"/>
				</defs>
				<clipPath id="SVGID_52_">
					<use xlink:href="#SVGID_51_"  style="overflow:visible;"/>
				</clipPath>
				<g class="st25">
					<defs>
						<path id="SVGID_53_" d="M39.2,18.7c-0.1-0.4-0.3-0.4-0.3,0c0.1,4.1-2.3,8.6-7.5,8.6c-1.3,0-0.9,2.2-3.3,1.1
							c-1.7-1.2-2.7,1.2-4-1.4c-0.3-0.7-0.7-1-1.2-1.2c-5.1-1.3-6.7-8.5-2.2-14.3c0.9,0.5,1.2,0.6,2.2-0.3c0.5-0.5,1.3-1,1.8-1.2
							c1.1-0.4,1.7-0.9,0.7-3c-1.2-2.7-3.7-2-4.8-1c-1.3,1.1-2.2,2.8-0.5,4.8c-4.6,3.2-5.4,7-5.3,10.4c0.1,3.6-0.8,3.3,0.3,6.9
							c0.1,0.3-0.1,0.3-0.3,0.2c-4.8-3.1-7.4-12.6,0.1-17.9c0.2-0.2,0.1-0.4-0.5,0c-6.4,3.5-7,10.2-6,14.7c0.5,2.2-0.3,2.6,0.6,5.5
							c1.9,6,3.5,6.5,5.9,6.7c4.2,0,1.4-2.4,1.5-5.3c0-0.2,0.2-0.3,0.3,0.1c2.3,5.3,3.9,10.1,10,9.7c3.5-0.5,1.6-2.2,1.4-3.3
							c-2.6-8.8,3.7-10.8,1.9-2.3c-1.2,4.9,2.5,4.4,5.1,2.6C37.8,37.2,41.2,25.3,39.2,18.7 M29,29.1c-0.6,1.6-3.6,1-3.7-0.5
							c0-0.1,0.1,0,0.1,0C26.7,28.9,28,29,29,29.1C28.9,29,29,29,29,29.1"/>
					</defs>
					<clipPath id="SVGID_54_">
						<use xlink:href="#SVGID_53_"  style="overflow:visible;"/>
					</clipPath>
					<g class="st26">
						<defs>
							<rect id="SVGID_55_" x="8" y="5.2" width="32" height="37"/>
						</defs>
						<clipPath id="SVGID_56_">
							<use xlink:href="#SVGID_55_"  style="overflow:visible;"/>
						</clipPath>
						<rect x="3" y="0.2" class="st27" width="41.8" height="46.7"/>
					</g>
				</g>
			</g>
		</g>
	</g>
</g>
<g>
	<defs>
		<path id="SVGID_57_" d="M15.5,39.7c0,0.6-0.5,1.1-1.1,1.1c-0.6,0-1.1-0.5-1.1-1.1c0-0.6,0.5-1.1,1.1-1.1
			C15,38.6,15.5,39.1,15.5,39.7 M14.4,38.3c-0.7,0-1.3,0.6-1.3,1.4c0,0.8,0.6,1.4,1.3,1.4c0.7,0,1.3-0.6,1.3-1.4
			C15.7,38.9,15.1,38.3,14.4,38.3"/>
	</defs>
	<clipPath id="SVGID_58_">
		<use xlink:href="#SVGID_57_"  style="overflow:visible;"/>
	</clipPath>
	<g class="st28">
		<defs>
			<rect id="SVGID_59_" x="8" y="5.2" width="32" height="49"/>
		</defs>
		<clipPath id="SVGID_60_">
			<use xlink:href="#SVGID_59_"  style="overflow:visible;"/>
		</clipPath>
		<rect x="8" y="33.3" class="st29" width="12.7" height="12.8"/>
	</g>
</g>
<g>
	<defs>
		<path id="SVGID_61_" d="M14.8,39.9c0,0.2-0.2,0.3-0.4,0.3c-0.3,0-0.4-0.2-0.4-0.5c0-0.3,0.1-0.5,0.4-0.5c0.2,0,0.3,0.1,0.4,0.3
			h0.2c0-0.3-0.3-0.5-0.5-0.5c-0.4,0-0.6,0.3-0.6,0.7c0,0.4,0.2,0.7,0.6,0.7c0.3,0,0.5-0.2,0.5-0.5H14.8z"/>
	</defs>
	<clipPath id="SVGID_62_">
		<use xlink:href="#SVGID_61_"  style="overflow:visible;"/>
	</clipPath>
	<g class="st30">
		<defs>
			<rect id="SVGID_63_" x="8" y="5.2" width="32" height="49"/>
		</defs>
		<clipPath id="SVGID_64_">
			<use xlink:href="#SVGID_63_"  style="overflow:visible;"/>
		</clipPath>
		<rect x="8.8" y="34" class="st31" width="11.2" height="11.4"/>
	</g>
</g>
<g>
	<defs>
		<path id="SVGID_65_" d="M39.2,43c0,0.6-0.5,1.1-1.1,1.1c-0.6,0-1.1-0.5-1.1-1.1c0-0.6,0.5-1.1,1.1-1.1
			C38.7,41.8,39.2,42.3,39.2,43 M38.1,41.6c-0.7,0-1.3,0.6-1.3,1.4c0,0.8,0.6,1.4,1.3,1.4c0.7,0,1.3-0.6,1.3-1.4
			C39.4,42.2,38.8,41.6,38.1,41.6"/>
	</defs>
	<clipPath id="SVGID_66_">
		<use xlink:href="#SVGID_65_"  style="overflow:visible;"/>
	</clipPath>
	<g class="st32">
		<defs>
			<rect id="SVGID_67_" x="8" y="5.2" width="32" height="49"/>
		</defs>
		<clipPath id="SVGID_68_">
			<use xlink:href="#SVGID_67_"  style="overflow:visible;"/>
		</clipPath>
		<rect x="31.7" y="36.6" class="st33" width="12.7" height="12.7"/>
	</g>
</g>
<g>
	<defs>
		<path id="SVGID_69_" d="M37.8,43.1H38l0.3,0.6h0.2l-0.4-0.6c0.2,0,0.3-0.1,0.3-0.4c0-0.3-0.1-0.4-0.4-0.4h-0.5v1.3h0.2V43.1z
			 M37.8,42.9v-0.4h0.3c0.1,0,0.3,0,0.3,0.2c0,0.2-0.1,0.2-0.3,0.2H37.8z"/>
	</defs>
	<clipPath id="SVGID_70_">
		<use xlink:href="#SVGID_69_"  style="overflow:visible;"/>
	</clipPath>
	<g class="st34">
		<defs>
			<rect id="SVGID_71_" x="8" y="5.2" width="32" height="49"/>
		</defs>
		<clipPath id="SVGID_72_">
			<use xlink:href="#SVGID_71_"  style="overflow:visible;"/>
		</clipPath>
		<rect x="32.6" y="37.3" class="st35" width="11" height="11.3"/>
	</g>
</g>
</svg>
