<?xml version="1.0" encoding="utf-8"?>
<!-- Generator: Adobe Illustrator 21.0.0, SVG Export Plug-In . SVG Version: 6.00 Build 0)  -->
<svg version="1.1" id="Capa_1" xmlns="http://www.w3.org/2000/svg" xmlns:xlink="http://www.w3.org/1999/xlink" x="0px" y="0px"
	 viewBox="0 0 992.1 357.6" style="enable-background:new 0 0 992.1 357.6;" xml:space="preserve">
<style type="text/css">
	.st0{fill:#FFFFFF;}
</style>
<g>
	<g>
		<g>
			<g>
				<path class="st0" d="M362,197.9c-3.5-1.9-7.4-3.5-11.5-4.9c-4-1.4-7.8-2.8-11.2-4.2c-3.4-1.4-6.2-2.9-8.4-4.6
					c-2-1.5-2.9-3.4-2.9-5.7c0-2.6,1.1-4.6,3.4-6.3c2.4-1.7,6-2.6,10.8-2.6c4.2,0,7.9,0.8,10.9,2.2c2.8,1.4,4.4,3.8,4.9,7.6l0.2,1.3
					h6.8c0.8,0,1.8,0,2.9,0.1c1.2,0.1,2.3,0.1,3.2,0.1h1.5l-0.1-1.5c-0.2-3.9-1.1-7.3-2.7-10.2s-3.8-5.4-6.5-7.2
					c-2.7-1.8-5.9-3.2-9.6-4.1c-6.8-1.6-15.1-1.8-22.2,0c-3.4,0.9-6.5,2.2-9.1,3.9c-2.7,1.8-4.9,4-6.5,6.8c-1.7,2.8-2.5,6.1-2.5,9.8
					c0,4.8,1.3,8.7,3.8,11.7c2.4,2.9,5.5,5.3,9.1,7.3c3.5,1.9,7.4,3.6,11.6,4.9c4,1.3,7.8,2.6,11.2,4c3.3,1.4,6.1,2.9,8.3,4.7
					c2,1.6,2.9,3.6,2.9,6.1c0,2.1-0.5,3.8-1.6,5.2c-1.1,1.5-2.6,2.6-4.3,3.5c-1.8,0.9-3.7,1.5-5.9,1.8c-7.6,1.2-14,0.3-18.4-2.8
					c-3-2.1-4.6-5.8-4.8-11.1l-0.1-1.4h-14.9v1.5c0.1,4.5,1.1,8.6,2.8,12c1.8,3.5,4.2,6.3,7,8.6c2.9,2.3,6.2,4,10,5.1
					c3.7,1.1,7.7,1.6,11.8,1.6c4.3,0,8.5-0.5,12.3-1.4c3.9-0.9,7.5-2.4,10.4-4.4c3-2,5.5-4.7,7.2-7.8c1.8-3.2,2.7-7.1,2.7-11.7
					c0-4.2-1.3-7.9-3.8-10.7C368.6,202.2,365.6,199.8,362,197.9z"/>
			</g>
		</g>
		<g>
			<g>
				<path class="st0" d="M448.1,168.7c-2.9-3.8-6.6-6.9-11-9.1c-4.3-2.2-9.4-3.3-14.9-3.3c-4.3,0-8.8,1.2-13.4,3.6
					c-3.3,1.7-6.1,4.1-8.6,6.9V158h-14.4v113.7h14.4v-41.3c2.5,2.9,5.5,5.2,8.9,6.9c4.7,2.4,9.2,3.6,13.4,3.6
					c5.6,0,10.6-1.1,14.9-3.4c4.3-2.2,7.9-5.3,10.9-9.2c2.9-3.8,5.2-8.3,6.7-13.4c1.5-5.1,2.3-10.6,2.3-16.4
					c0-5.8-0.8-11.3-2.4-16.4C453.3,177,451,172.5,448.1,168.7z M441.2,210c-1,3.6-2.5,6.7-4.3,9.3s-4.1,4.6-6.7,6.2
					c-5.1,3-12,2.9-17,0.1c-2.6-1.4-4.8-3.4-6.7-5.9c-1.9-2.5-3.4-5.5-4.5-8.9s-1.7-7.1-1.8-11v-1.2c0-4.1,0.5-7.9,1.6-11.4
					s2.5-6.7,4.4-9.3c1.9-2.6,4.2-4.7,6.8-6.1c5.3-2.9,12-2.9,17.2,0c2.6,1.5,4.8,3.5,6.6,6.1c1.8,2.6,3.3,5.8,4.3,9.3
					c1,3.6,1.5,7.4,1.5,11.5C442.7,202.5,442.2,206.4,441.2,210z"/>
			</g>
		</g>
		<g>
			<g>
				<path class="st0" d="M539.8,227.8c-1.7,0.5-3,0.1-4.2-1.4c-0.9-1.2-1.4-2.4-1.4-3.8v-41.4c0-4.5-0.9-8.3-2.7-11.5
					c-1.8-3.1-4.2-5.7-7.3-7.7c-3-1.9-6.4-3.3-10.2-4.2c-7.1-1.6-14.8-1.9-22.6,0.1c-3.7,0.9-7.1,2.4-10.1,4.3
					c-3.1,1.9-5.6,4.4-7.6,7.4s-3.2,6.6-3.4,10.8l-0.1,1.5h14.9l0.2-1.2c0.6-3.9,2.3-6.6,5.4-8.3c3.2-1.8,7-2.7,11.4-2.7
					c5.7,0,10.2,0.9,13.2,2.8c2.9,1.7,4.3,4.6,4.3,8.7c0,2.1-1,3.8-3.1,5.1c-2.4,1.5-5.5,2.8-9.1,4c-3.7,1.1-7.9,2.3-12.3,3.5
					c-4.5,1.2-8.8,2.7-12.7,4.5c-4,1.9-7.3,4.3-9.9,7.3c-2.8,3.1-4.2,7.1-4.2,11.9c0,3.6,0.7,6.8,1.9,9.7c1.3,2.9,3.1,5.4,5.3,7.5
					c2.2,2,4.9,3.6,7.8,4.7c5.2,2,11.5,2,17.2,1.1c2.6-0.4,5.1-1.2,7.7-2.3c2.5-1.2,5.1-2.8,7.5-4.8c1.7-1.4,3.5-3.2,5.4-5.4
					c0.6,3.8,1.9,6.7,3.7,8.8c2.4,2.8,5.6,4.2,9.4,4.2c1.5,0,2.9-0.1,4.1-0.3c1.2-0.2,2.7-0.6,4.3-1.2l1-0.3v-12.4l-1.8,0.4
					C541.1,227.5,540.4,227.7,539.8,227.8z M519.7,211.2c-3.3,5.6-7.2,9.9-11.5,12.6c-4.4,2.8-8.9,4.2-13.4,4.2
					c-1.5,0-3-0.2-4.5-0.6c-1.4-0.4-2.7-1.1-3.8-2c-1.1-0.9-2-2-2.7-3.4s-1-3.2-1-5.1c0-2.1,0.6-3.8,1.9-5.2
					c1.4-1.5,3.2-2.8,5.5-3.8c2.3-1.1,5-2,7.9-2.8c3-0.8,6-1.7,9-2.6c2.9-0.9,5.8-1.9,8.5-3.1c1.6-0.7,3-1.5,4.2-2.4L519.7,211.2
					L519.7,211.2z"/>
			</g>
		</g>
		<g>
			<g>
				<path class="st0" d="M604.1,210c-0.5,2.5-1.3,4.9-2.3,7.1c-1,2.2-2.3,4.1-3.8,5.7c-1.5,1.6-3.3,2.9-5.2,3.8
					c-2,0.9-4.3,1.4-6.9,1.4c-3.2,0-6.1-0.8-8.6-2.5c-2.6-1.7-4.9-4-6.7-6.9c-1.9-2.9-3.3-6.2-4.3-9.9s-1.5-7.5-1.5-11.4
					c0-3.8,0.5-7.4,1.4-10.7s2.4-6.2,4.3-8.8c1.9-2.5,4.1-4.5,6.7-6c2.6-1.5,5.6-2.2,9-2.2c4.7,0,8.6,1.1,11.5,3.1
					c2.9,2.1,5.1,5.8,6.6,11.1l0.3,1.1h15.2l-0.3-1.7c-0.8-3.8-2-7.4-3.8-10.6s-4-6.1-6.7-8.5s-6-4.3-9.8-5.7c-3.8-1.3-8-2-12.7-2
					c-5.5,0-10.5,1.1-14.9,3.1c-4.4,2.1-8.3,5-11.4,8.8c-3.1,3.7-5.5,8.1-7.2,13c-1.7,4.9-2.5,10.2-2.5,15.9c0,5.2,0.7,10.4,2,15.5
					c1.3,5.2,3.5,9.9,6.3,14c2.8,4.2,6.5,7.6,10.9,10.2c4.4,2.7,9.8,4,15.9,4c9.6,0,17.5-2.7,23.4-8.1c5.9-5.4,9.5-13,10.7-22.5
					l0.2-1.6h-15.5L604.1,210z"/>
			</g>
		</g>
		<g>
			<g>
				<path class="st0" d="M694.3,167.9c-3.1-3.5-6.9-6.3-11.4-8.3c-4.4-2-9.5-3.1-15.1-3.1c-5.7,0-10.9,1.1-15.5,3.4
					c-4.6,2.2-8.5,5.3-11.8,9c-3.2,3.7-5.7,8.1-7.5,13c-1.7,4.9-2.6,10.1-2.6,15.5c0,5.8,0.9,11.4,2.6,16.6
					c1.7,5.2,4.3,9.9,7.5,13.8c3.3,4,7.3,7.2,11.8,9.5c4.6,2.4,9.8,3.6,15.5,3.6c3.9,0,7.8-0.6,11.6-1.8s7.3-3,10.3-5.3
					c3.1-2.3,5.7-5.2,7.9-8.5s3.8-7.2,4.6-11.5l0.4-1.7h-13.4l-0.3,1c-3.5,10-10.4,14.8-21.1,14.8c-3.1,0-6-0.7-8.6-2.2
					c-2.7-1.5-5.1-3.5-7.1-6.1c-2-2.5-3.7-5.5-4.8-8.7c-1-2.8-1.6-5.8-1.8-8.8h58.4v-6c0-5.6-0.8-10.9-2.5-15.7
					C699.8,175.7,697.4,171.4,694.3,167.9z M645.7,190.4c0.2-2.3,0.8-4.7,1.7-6.9c1.1-2.7,2.6-5,4.5-7.1c1.9-2,4.2-3.7,6.8-4.9
					c5.4-2.6,12.4-2.3,17.6-0.1c2.7,1.1,5,2.7,6.9,4.6c1.9,2,3.3,4.3,4.4,7c0.9,2.3,1.4,4.7,1.6,7.3h-43.5V190.4z"/>
			</g>
		</g>
		<g>
			<g>
				<path class="st0" d="M830.1,169.2c-2.8-3.8-6.4-6.9-10.6-9.2c-4.3-2.3-9.2-3.4-14.8-3.4c-4,0-8.3,1.3-12.6,3.8
					c-3.1,1.8-5.8,4-8.1,6.4v-40.3h-14.6v112.9H784v-8.6c2.2,2.8,4.8,5.1,7.6,6.7c4.1,2.4,8.4,3.6,12.7,3.6c5.6,0,10.6-1.1,14.8-3.3
					s7.8-5.3,10.8-9.1c2.9-3.8,5.1-8.3,6.5-13.4c1.4-5.1,2.1-10.6,2.1-16.4c0-5.8-0.7-11.3-2.1-16.3
					C835,177.5,832.9,173,830.1,169.2z M822.7,210.4c-0.9,3.5-2.2,6.6-4,9.3c-1.7,2.6-3.8,4.6-6.3,6.1c-4.8,2.8-11.9,2.9-16.9,0
					c-2.5-1.5-4.6-3.5-6.2-6.1c-1.7-2.6-3-5.8-3.9-9.3s-1.4-7.4-1.4-11.5v-1.2c0.1-4,0.6-7.7,1.5-11.1c0.9-3.3,2.2-6.3,4-8.9
					c1.7-2.5,3.8-4.5,6.2-5.9c2.4-1.4,5.1-2.1,8.2-2.1c3.2,0,6.1,0.8,8.5,2.2c2.5,1.5,4.6,3.6,6.3,6.1c1.7,2.6,3.1,5.7,4,9.3
					c0.9,3.6,1.4,7.5,1.4,11.6C824.1,203,823.6,206.9,822.7,210.4z"/>
			</g>
		</g>
		<g>
			<g>
				<path class="st0" d="M917.6,227.8c-1.7,0.5-3,0.1-4.2-1.4c-0.9-1.2-1.4-2.4-1.4-3.8v-41.4c0-4.5-0.9-8.3-2.7-11.5
					c-1.8-3.1-4.2-5.7-7.3-7.7c-3-1.9-6.4-3.3-10.2-4.2c-7.1-1.6-14.8-1.9-22.6,0.1c-3.7,0.9-7.1,2.4-10.1,4.3
					c-3.1,1.9-5.6,4.4-7.6,7.4s-3.2,6.6-3.4,10.8l-0.1,1.5h15l0.2-1.2c0.6-3.9,2.3-6.6,5.4-8.3c3.2-1.8,7-2.7,11.4-2.7
					c5.7,0,10.2,0.9,13.2,2.8c2.9,1.7,4.3,4.6,4.3,8.7c0,2.1-1,3.8-3.1,5.1c-2.4,1.5-5.5,2.8-9.1,4c-3.7,1.1-7.9,2.3-12.3,3.5
					c-4.5,1.2-8.8,2.7-12.7,4.5c-4,1.9-7.3,4.3-9.9,7.3c-2.8,3.1-4.2,7.1-4.2,11.9c0,3.6,0.6,6.8,1.9,9.7c1.3,2.9,3.1,5.4,5.3,7.5
					c2.2,2,4.9,3.6,7.8,4.7c5.2,2,11.5,2,17.2,1.1c2.6-0.4,5.1-1.2,7.7-2.3c2.5-1.2,5.1-2.8,7.5-4.8c1.7-1.4,3.5-3.2,5.4-5.4
					c0.6,3.8,1.9,6.7,3.7,8.8c2.4,2.8,5.6,4.2,9.4,4.2c1.5,0,2.9-0.1,4.1-0.3c1.2-0.2,2.7-0.6,4.3-1.2l1-0.3v-12.4l-1.8,0.4
					C918.9,227.5,918.2,227.7,917.6,227.8z M897.5,211.2c-3.3,5.6-7.2,9.9-11.5,12.6c-4.4,2.8-8.9,4.2-13.4,4.2
					c-1.5,0-3-0.2-4.5-0.6c-1.4-0.4-2.7-1.1-3.8-2s-2-2-2.7-3.4s-1-3.2-1-5.1c0-2.1,0.6-3.8,1.9-5.2c1.4-1.5,3.2-2.8,5.5-3.8
					c2.3-1.1,5-2,7.9-2.8c3-0.8,6-1.7,9-2.6c2.9-0.9,5.8-1.9,8.5-3.1c1.6-0.7,3-1.5,4.2-2.4v14.2H897.5z"/>
			</g>
		</g>
		<g>
			<g>
				<path class="st0" d="M971.1,157.6c-0.9-0.4-1.9-0.6-3-0.8c-1-0.2-2-0.3-2.9-0.3c-7.5,0-13.8,3.2-18.6,9.6l0.3-8.2h-14.5v81.4
					h14.4v-48.9c0-2.6,0.4-5.1,1.2-7.4c0.8-2.3,2-4.4,3.5-6.2c1.5-1.8,3.5-3.2,5.7-4.3s4.8-1.6,7.6-1.6c0.8,0,2.3,0.2,5.2,1.2
					l1.9,0.6v-14.8L971.1,157.6z"/>
			</g>
		</g>
		<g>
			<g>
				<circle class="st0" cx="735.1" cy="221.3" r="20.9"/>
			</g>
		</g>
	</g>
	<path class="st0" d="M277.7,247.4c-0.1-0.3-0.1-0.6-0.2-1s-0.2-0.8-0.4-1.3c-0.1-0.3-0.2-0.7-0.4-1c-0.2-0.4-0.4-0.8-0.6-1.2
		s-0.4-0.8-0.6-1.2s-0.4-0.7-0.6-1.1c-0.3-0.5-0.6-1-0.9-1.4c-0.1-0.1-0.2-0.3-0.3-0.4c-0.6-0.9-1.3-1.8-2-2.7
		c-5.3-6.5-13.5-13.6-23.6-20.8c1-5.5,1.5-11,1.6-16.7h0.1v-1.9l-0.1-6l-0.2,0.1c-0.3-4.2-0.8-8.3-1.7-12.4
		c24.9-15,35.5-26.7,32.2-35.9c-3.7-10.4-25.1-10.9-52.1-6.5c-5.2-6.4-11-12-17.5-16.8c4.3-18.9,5.2-32.4,2.6-40.3
		c-0.5-1.5-1.1-2.7-1.8-3.8s-1.6-2-2.5-2.6c-0.5-0.3-1-0.6-1.5-0.9c-0.6-0.3-1.2-0.5-1.9-0.6c-0.2,0-0.4,0-0.6-0.1
		c-0.5-0.1-0.9-0.1-1.4-0.1c-0.2,0-0.5,0-0.7,0c-0.5,0-0.9,0.1-1.4,0.2c-0.3,0-0.5,0.1-0.8,0.2c-0.5,0.1-1,0.3-1.5,0.4
		c-0.3,0.1-0.5,0.2-0.8,0.3c-0.5,0.2-1,0.4-1.5,0.7c-0.3,0.1-0.6,0.3-0.9,0.5c-0.5,0.2-0.9,0.5-1.4,0.8c-0.4,0.2-0.7,0.4-1.1,0.7
		c-0.3,0.2-0.6,0.5-0.9,0.7c-0.9,0.6-1.7,1.3-2.6,2c-6.5,5.4-13.6,13.7-20.8,23.8c-5.7-1-11.5-1.6-17.3-1.6v-0.1h-2l-5.9,0.1
		l0.1,0.2c-5.4,0.4-10.8,1.3-16,2.6l1-0.7c-16-24.9-28.1-35.2-37.2-31.6c-10.6,4.4-10.2,26.4-4.7,53.8c-4.5,3.9-8.6,8.3-12.3,12.9
		c-0.2,0-0.4-0.1-0.6-0.1l0,0c-0.1,0-0.2,0-0.3-0.1c-9.9-2.3-18.8-3.8-26.4-4.2c-0.1,0-0.3,0-0.4,0c-1.3-0.1-2.5-0.1-3.7-0.1
		c-0.4,0-0.8,0-1.1,0c-0.9,0-1.8,0-2.6,0.1c-1.2,0.1-2.4,0.2-3.5,0.4c-0.6,0.1-1.2,0.2-1.8,0.3c-0.3,0.1-0.5,0.1-0.8,0.2
		c-0.6,0.2-1.2,0.3-1.7,0.5c-0.2,0.1-0.5,0.2-0.7,0.3c-0.5,0.2-1,0.4-1.5,0.7c-0.2,0.1-0.4,0.2-0.6,0.3c-0.5,0.3-0.9,0.6-1.3,0.9
		c-0.2,0.1-0.3,0.3-0.5,0.4c-0.4,0.3-0.8,0.7-1.1,1.1c-0.1,0.1-0.2,0.2-0.3,0.4c-0.4,0.5-0.8,1.1-1,1.7c0,0.1-0.1,0.2-0.1,0.3
		c-0.2,0.5-0.4,1-0.5,1.5c-0.1,0.3-0.1,0.6-0.1,0.8c-0.1,0.4-0.1,0.8-0.1,1.2c0,0.3,0,0.6,0,0.9c0,0.4,0.1,0.8,0.2,1.2
		c0.1,0.3,0.1,0.6,0.2,0.9c0.1,0.4,0.2,0.8,0.4,1.3c0.1,0.3,0.2,0.7,0.4,1c0.2,0.4,0.4,0.8,0.6,1.2s0.4,0.8,0.6,1.1s0.4,0.7,0.6,1.1
		c0.3,0.5,0.6,1,0.9,1.5c0.1,0.1,0.2,0.3,0.3,0.4c0.6,0.9,1.3,1.8,2.1,2.7c5.5,6.8,14.3,14.3,25.1,21.9c-1.3,6.4-1.9,13-1.9,19.6
		c-1.4,0.8-2.7,1.6-4,2.4c-25.3,15.2-36.1,27-32.8,36.2c2.2,6.2,10.2,9.3,24.1,9.3c6.7,0,14.8-0.7,24.3-2.2
		c2.4,4.6,5.2,8.9,8.4,13.1l-0.3,0.1l3.9,4.5c0,0,0,0,0.1,0.1l1.2,1.4h0.1c3.9,4.3,8.1,8.2,12.6,11.8c-6.1,27.2-5,43,3.4,46.8
		c2.5,1.1,5.3,1.1,8.5-0.1c0.7-0.3,1.5-0.7,2.3-1.1c0.3-0.1,0.5-0.2,0.8-0.4c0.7-0.4,1.5-0.9,2.3-1.5c0.3-0.2,0.7-0.4,1-0.7
		c0.8-0.6,1.6-1.2,2.4-1.9c0.4-0.3,0.8-0.6,1.1-0.9c0.8-0.7,1.6-1.5,2.4-2.3c0.4-0.4,0.8-0.8,1.3-1.2c0.8-0.8,1.6-1.7,2.5-2.6
		c0.5-0.5,1-1,1.5-1.5c0.8-0.9,1.6-1.9,2.4-2.8c0.6-0.7,1.1-1.3,1.7-2c0.8-1,1.6-2,2.4-3c0.6-0.8,1.3-1.6,2-2.5
		c0.8-1,1.5-2.1,2.3-3.2c0.1-0.1,0.1-0.2,0.2-0.3c6.6,1.4,13.4,2.2,20.2,2.2c1.1,0,2.2,0,3.3-0.1c12.9,20.7,25.7,35.4,35.6,35.4
		c1.2,0,2.3-0.2,3.4-0.6c9-3.5,10.9-19.1,5.9-47.4c3.4-1.9,6.6-4.1,9.8-6.4v0.3l4.5-3.8l1.5-1.3v-0.1c5.3-4.6,10.1-9.7,14.3-15.2
		c19.3,4.3,32.9,5.1,40.6,2.2l0,0l0,0c3.3-1.2,5.5-3.1,6.6-5.6c0.1-0.1,0.1-0.3,0.1-0.4c0.2-0.5,0.4-0.9,0.5-1.4
		c0.1-0.3,0.1-0.5,0.1-0.8c0-0.4,0.1-0.8,0.1-1.2c0-0.3,0-0.6,0-0.9C277.8,248.2,277.8,247.8,277.7,247.4z M220,137.4
		c-11.9,2.3-24.6,5.4-37.2,8.9c-1.7-2-4.3-3.3-7.2-3.3c-0.3,0-0.5,0.1-0.8,0.1c-0.5-1.2-1.1-2.3-1.6-3.5c-0.7-1.4-1.4-2.9-2.2-4.3
		c-1.3-2.6-2.6-5.2-3.9-7.8c-0.9-1.6-1.7-3.3-2.6-4.9c-1.3-2.4-2.5-4.8-3.9-7.1c-0.9-1.7-1.9-3.3-2.8-4.9c-0.8-1.3-1.5-2.7-2.3-4
		C180.4,107.6,203.7,118.8,220,137.4z M187.9,221.2c0,0.6,0.1,1.1,0.2,1.7c-1.4,0.6-2.8,1.2-4.2,1.8c-1.1,0.5-2.2,1-3.4,1.4
		c-1.9,0.8-3.8,1.6-5.8,2.3c-1,0.4-2,0.8-3,1.2c-2.9,1.1-5.8,2.3-8.7,3.3c-7.1,2.6-14.5,5.1-21.9,7.5c-1.7-2.3-4.5-3.9-7.7-3.9
		c-0.1,0-0.2,0-0.3,0c-3.8-8.6-7.7-17.9-11.7-27.9c-3-7.6-5.7-14.8-8.2-21.8c3-2.3,4.9-5.9,4.9-9.9c0-0.1,0-0.3,0-0.4
		c7.3-2.9,14.7-5.8,22.3-8.5c9.9-3.5,19.2-6.6,28-9.4c1.7,1.9,4.2,3.2,7.1,3.2c0.1,0,0.2,0,0.3,0c3.4,7.8,6.6,15.6,9.4,23.2
		c2.1,5.8,4.2,11.6,6.1,17.5c0.7,2,1.2,4,1.9,6.1c0.2,0.6,0.4,1.2,0.6,1.8C190.3,212.8,187.9,216.7,187.9,221.2z M147.6,106.4
		c1.2,2,2.4,4.1,3.6,6.2c0.9,1.6,1.9,3.2,2.8,4.8c1.4,2.5,2.8,5.1,4.1,7.6c0.8,1.5,1.7,3,2.5,4.6c1.5,2.9,2.9,5.8,4.4,8.7
		c0.6,1.2,1.2,2.4,1.8,3.7c0.6,1.3,1.2,2.6,1.8,3.9c-1.3,1.4-2.2,3.1-2.5,5.1c-9.9,3-19.6,6.2-28.4,9.4c-7.7,2.8-15.2,5.6-22.5,8.6
		c-2.3-2.7-5.7-4.5-9.5-4.6c-4.6-14.7-8-27.7-10.3-38.9c7.3-5.7,15.4-10.2,24.1-13.5C128.6,108.7,138,106.9,147.6,106.4z M94.5,77.9
		c2.5-0.9,11,3.5,26.2,26.7c-1.1,0.4-2.3,0.7-3.4,1.1c-8.3,3.1-16.1,7.3-23.2,12.5C89.5,93.4,90.6,79.4,94.5,77.9z M88.6,131.6
		c2.6,11.4,5.9,23.4,9.6,35.3c-3.1,2.3-5.2,6-5.2,10.1c0,0.4,0.1,0.8,0.1,1.3c-11.9,5.3-23,10.7-32.9,16.1
		C61.1,170.5,71.3,148,88.6,131.6z M24.3,234c-0.9-2.5,4-11.3,29.3-26.4c0.1-0.1,0.2-0.1,0.3-0.2c0.8,8.4,2.7,16.6,5.6,24.5
		c0.5,1.4,1.2,2.8,1.8,4.2C33.2,240.1,25,236,24.3,234z M80.9,255.6c-6.4-7.8-11.4-16.5-15-26.1c-3-8.1-4.9-16.7-5.5-25.4
		c0-0.2,0-0.4,0-0.5c10.6-6,22.8-12,36.1-17.9c2.3,2.4,5.5,3.9,9.1,3.9l0,0c2.7,7.7,5.5,15.2,8.2,22.1c3.6,9,7.7,18.7,12.1,28.6
		c-1.2,1.5-1.9,3.3-2,5.3c-2,0.6-4,1.1-5.9,1.7c-1.4,0.4-2.9,0.7-4.3,1.1c-2.8,0.7-5.6,1.4-8.4,2.1c-1.7,0.4-3.3,0.7-5,1.1
		c-2.6,0.6-5.1,1.2-7.7,1.7c-1.8,0.4-3.5,0.7-5.3,1C85.2,254.8,83,255.3,80.9,255.6z M86.2,261.6c1.3-0.3,2.6-0.5,3.9-0.8
		c1.7-0.4,3.5-0.7,5.2-1.1c2.5-0.5,4.9-1.1,7.4-1.6c1.7-0.4,3.4-0.8,5.1-1.2c2.7-0.6,5.3-1.3,8-2c1.5-0.4,2.9-0.7,4.4-1.1
		c2-0.5,3.9-1.1,5.8-1.6c1.7,2,4.2,3.4,7,3.5c5.6,11.7,11.6,23.1,17.7,33.4C126.6,288.8,103.2,278.8,86.2,261.6z M190.9,322.9
		c-3.9,1.5-13.9-7.6-27-27.9c7.4-1,14.7-2.7,21.8-5.4c2.2-0.8,4.3-1.7,6.4-2.7C196.6,314.1,192.9,322.1,190.9,322.9z M183.4,283.3
		c-7.6,2.8-15.5,4.6-23.5,5.3c-6-9.8-12.5-21.9-19.4-36.1c1.3-1.5,2.2-3.4,2.4-5.4c7.7-2.4,15.2-4.9,22.5-7.6
		c5.1-1.9,10.2-3.9,15.3-6c0.6-0.3,1.2-0.5,1.8-0.7c2.7-1.1,5.4-2.4,8.2-3.6c2.3,2.9,5.8,4.7,9.8,4.7l0,0c0.1,0.5,0.2,0.9,0.4,1.4
		c0.7,2.8,1.4,5.6,2.1,8.5c0.2,1.1,0.5,2.1,0.8,3.2c0.9,3.9,1.7,7.8,2.5,11.7c0.1,0.7,0.3,1.4,0.4,2.1c0.6,2.9,1.1,5.7,1.6,8.6
		C200.7,275.2,192.4,279.9,183.4,283.3z M214.3,264.1c-0.3-1.4-0.5-2.8-0.8-4.1c-0.3-1.4-0.5-2.7-0.8-4.1c-0.6-2.8-1.2-5.6-1.8-8.5
		c-0.2-1.1-0.5-2.1-0.7-3.2c-0.9-3.8-1.8-7.7-2.8-11.5c-0.1-0.3-0.1-0.5-0.2-0.8c3.6-2.2,6-6.2,6-10.7c0-0.8-0.1-1.6-0.2-2.4
		c0.4-0.2,0.8-0.4,1.2-0.6c3.5-1.8,7-3.6,10.5-5.4c1.1-0.6,2.2-1.2,3.4-1.8c2.4-1.3,4.8-2.6,7.2-4c1.3-0.7,2.6-1.5,3.9-2.3
		c1.2-0.7,2.4-1.3,3.6-2C241.4,226.1,231.3,248,214.3,264.1z M235.4,199c-0.8,0.4-1.5,0.9-2.2,1.3c-3.5,2-7.1,3.9-10.6,5.9
		c-1,0.6-2.1,1.1-3.1,1.6c-2.6,1.3-5.1,2.7-7.7,4c-0.6,0.3-1.3,0.6-1.9,1c-2.3-2.5-5.6-4.2-9.3-4.2c0,0,0,0-0.1,0
		c-0.2-0.8-0.5-1.5-0.7-2.3c-0.6-2-1.2-4-1.9-6c-2-5.9-4-11.8-6.1-17.6c-2.9-7.7-6.1-15.5-9.5-23.4c1.5-1.4,2.5-3.3,2.8-5.4
		c15.5-4.3,29.2-7.4,40.7-9.4c4.7,6.6,8.6,13.7,11.4,21.3c3.5,9.3,5.4,19,5.7,28.9C240.4,196.2,237.9,197.6,235.4,199z M243.5,163.4
		c-2.6-7.1-6.1-13.8-10.3-20.1c24.1-3.5,37.6-2,39,1.9c0.9,2.4-3.7,10.7-26.6,24.8C245,167.8,244.3,165.6,243.5,163.4z"/>
</g>
</svg>
