<?xml version="1.0" encoding="utf-8"?>
<!-- Generator: Adobe Illustrator 24.1.2, SVG Export Plug-In . SVG Version: 6.00 Build 0)  -->
<svg version="1.1" id="Layer_1" xmlns="http://www.w3.org/2000/svg" xmlns:xlink="http://www.w3.org/1999/xlink" x="0px" y="0px"
	 viewBox="0 0 60 60" style="enable-background:new 0 0 60 60;" xml:space="preserve">
<style type="text/css">
	.st0{fill:none;}
	.st1{fill:#D04423;}
	.st2{fill:#FFFFFF;}
	.st3{font-family:'Verdana-Bold';}
	.st4{font-size:19.7128px;}
	.st5{fill:#0D5699;}
	.st6{fill:#1D6F42;}
	.st7{fill:#EE4730;}
	.st8{fill:#333333;}
</style>
<g>
	<g>
		<polygon class="st0" points="16,16.3 34.4,16.3 34.4,19.6 47.7,19.6 47.7,23 34.4,23 34.4,26.3 47.7,26.3 47.7,29.7 34.4,29.7 
			34.4,33 47.7,33 47.7,36.4 34.4,36.4 34.4,46.4 16,46.4 16,51.4 52.8,51.4 52.8,7.9 16,7.9 		"/>
		<path class="st1" d="M12.6,4.6v11.7H4.3v30.1h8.4v8.4h43.5V4.6H12.6z M52.8,51.4H16v-5h18.4v-10h13.4V33H34.4v-3.3h13.4v-3.3H34.4
			V23h13.4v-3.3H34.4v-3.3H16V7.9h36.8V51.4z"/>
	</g>
	<text transform="matrix(1 0 0 1 12.2913 38.1763)" class="st2 st3 st4">P</text>
</g>
</svg>
