<?xml version="1.0" encoding="utf-8"?>
<!-- Generator: Adobe Illustrator 24.1.2, SVG Export Plug-In . SVG Version: 6.00 Build 0)  -->
<svg version="1.1" id="Layer_1" xmlns="http://www.w3.org/2000/svg" xmlns:xlink="http://www.w3.org/1999/xlink" x="0px" y="0px"
	 viewBox="0 0 60 60" style="enable-background:new 0 0 60 60;" xml:space="preserve">
<style type="text/css">
	.st0{fill:none;}
	.st1{fill:#D04423;}
	.st2{fill:#0D5699;}
	.st3{fill:#FFFFFF;}
	.st4{fill:#1D6F42;}
	.st5{fill:#EE4730;}
	.st6{fill:#333333;}
</style>
<g>
	<polygon class="st0" points="32.8,41.4 26,32.3 17.2,46.3 42.6,46.3 36.6,37.8 	"/>
	<path class="st0" d="M40.4,29.7c0.9,0,1.6-0.8,1.6-1.6c0-0.9-0.7-1.6-1.6-1.6s-1.6,0.8-1.6,1.6C38.8,29,39.5,29.7,40.4,29.7z"/>
	<polygon class="st0" points="39.1,9 39.1,18.1 48.3,18.1 	"/>
	<path class="st0" d="M36.9,7.3L10,7.2v45.6h39.9V20.4h-13V7.3z M13.1,48.6l12.7-20.3l7.3,9.7l3.8-3.6L47,48.6H13.1z M40.4,24.2
		c2.2,0,3.9,1.8,3.9,3.9s-1.8,3.9-3.9,3.9s-3.9-1.8-3.9-3.9S38.2,24.2,40.4,24.2z"/>
	<path class="st6" d="M52.2,55l0-36.3h-0.1L38.5,5.1L7.8,5v9.4c0,0,0,2.2,0,2.2V55H39L52.2,55z M39.1,9l9.1,9.1h-9.1V9z M49.9,52.8
		H10V7.2l26.8,0.1v13h13V52.8z"/>
	<path class="st6" d="M33.1,38l-7.3-9.7L13.1,48.6H47L36.9,34.4L33.1,38z M17.2,46.3l8.8-14l6.8,9.1l3.8-3.6l6.1,8.5H17.2z"/>
	<path class="st6" d="M40.4,32.1c2.2,0,3.9-1.8,3.9-3.9s-1.8-3.9-3.9-3.9s-3.9,1.8-3.9,3.9S38.2,32.1,40.4,32.1z M40.4,26.5
		c0.9,0,1.6,0.8,1.6,1.6c0,0.9-0.8,1.6-1.6,1.6s-1.6-0.8-1.6-1.6C38.8,27.2,39.5,26.5,40.4,26.5z"/>
</g>
</svg>
