<?xml version="1.0" encoding="utf-8"?>
<!-- Generator: Adobe Illustrator 24.1.2, SVG Export Plug-In . SVG Version: 6.00 Build 0)  -->
<svg version="1.1" id="Layer_1" xmlns="http://www.w3.org/2000/svg" xmlns:xlink="http://www.w3.org/1999/xlink" x="0px" y="0px"
	 viewBox="0 0 60 60" style="enable-background:new 0 0 60 60;" xml:space="preserve">
<style type="text/css">
	.st0{fill:none;}
	.st1{fill:#D04423;}
	.st2{fill:#0D5699;}
	.st3{fill:#FFFFFF;}
	.st4{fill:#1D6F42;}
	.st5{fill:#EE4730;}
	.st6{fill:#333333;}
</style>
<g>
	<g>
		<path class="st5" d="M32.4,40.9v2.8h-2v-8.3h3.3c0.6,0,1.2,0.1,1.7,0.4c0.5,0.2,0.9,0.6,1.1,1c0.3,0.4,0.4,0.9,0.4,1.5
			c0,0.8-0.3,1.5-0.9,1.9c-0.6,0.5-1.4,0.7-2.4,0.7H32.4z M32.4,39.3h1.3c0.4,0,0.7-0.1,0.9-0.3c0.2-0.2,0.3-0.5,0.3-0.8
			c0-0.4-0.1-0.7-0.3-0.9c-0.2-0.2-0.5-0.3-0.9-0.4h-1.3V39.3z"/>
		<path class="st5" d="M37.6,43.7v-8.3h2.7c0.7,0,1.4,0.2,2,0.5c0.6,0.3,1,0.8,1.4,1.4c0.3,0.6,0.5,1.3,0.5,2v0.4
			c0,0.8-0.2,1.4-0.5,2c-0.3,0.6-0.8,1.1-1.4,1.4c-0.6,0.3-1.2,0.5-1.9,0.5C40.3,43.7,37.6,43.7,37.6,43.7z M39.6,36.9v5.2h0.7
			c0.6,0,1-0.2,1.3-0.6c0.3-0.4,0.5-1,0.5-1.8v-0.4c0-0.8-0.2-1.4-0.5-1.8c-0.3-0.4-0.8-0.6-1.3-0.6C40.2,36.9,39.6,36.9,39.6,36.9z
			"/>
		<path class="st5" d="M50.1,40.4h-3.2v3.3h-2v-8.3h5.5v1.5h-3.5v1.9h3.2V40.4z"/>
	</g>
	<g>
		<polygon class="st5" points="41.5,4.8 41.5,13.7 50.4,13.7 		"/>
	</g>
	<polygon class="st5" points="50.4,32.5 50.4,15.8 39.3,15.8 39.3,4.7 11.6,4.7 11.6,54.7 50.4,54.7 50.4,46.4 17.1,46.4 17.1,32.5 
			"/>
</g>
</svg>
