<?xml version="1.0" encoding="utf-8"?>
<!-- Generator: Adobe Illustrator 24.1.2, SVG Export Plug-In . SVG Version: 6.00 Build 0)  -->
<svg version="1.1" id="Layer_1" xmlns="http://www.w3.org/2000/svg" xmlns:xlink="http://www.w3.org/1999/xlink" x="0px" y="0px"
	 viewBox="0 0 60 60" style="enable-background:new 0 0 60 60;" xml:space="preserve">
<style type="text/css">
	.st0{fill:none;}
	.st1{fill:#0D5699;}
	.st2{fill:#FFFFFF;}
	.st3{fill:#1D6F42;}
	.st4{fill:#D04423;}
	.st5{fill:#EE4730;}
	.st6{fill:#333333;}
</style>
<g>
	<g>
		<polygon class="st0" points="16.1,16.4 34.4,16.4 34.4,19.7 47.8,19.7 47.8,23 34.4,23 34.4,26.4 47.8,26.4 47.8,29.7 34.4,29.7 
			34.4,33.1 47.8,33.1 47.8,36.4 34.4,36.4 34.4,46.4 16.1,46.4 16.1,51.4 52.8,51.4 52.8,8 16.1,8 		"/>
		<path class="st1" d="M12.7,4.7v11.7H4.4v30h8.3v8.3h43.4v-50H12.7z M52.8,51.4H16.1v-5h18.3v-10h13.3v-3.3H34.4v-3.3h13.3v-3.3
			H34.4V23h13.3v-3.3H34.4v-3.3H16.1V8h36.7V51.4z"/>
	</g>
	<g>
		<path class="st2" d="M28.7,24.7l-3.5,13.1h-3.8l-2.4-8.6l-2.3,8.6H13L9.5,24.7H13l2,9.1l2.4-9.1h3.4l2.3,9.1l2.1-9.1H28.7z"/>
	</g>
</g>
</svg>
